<svg width="93" height="87" viewBox="0 0 93 87" fill="none" xmlns="http://www.w3.org/2000/svg">
<path d="M43.3649 85.8283C20.0055 85.8283 1 66.7985 1 43.4127C1 20.0269 20.0055 1 43.3649 1C66.7272 1 85.7298 20.0269 85.7298 43.4127C85.7298 66.7985 66.7243 85.8283 43.3649 85.8283ZM43.3649 25.2387C33.3562 25.2387 25.2085 33.3927 25.2085 43.4156C25.2085 53.4356 33.3562 61.5925 43.3649 61.5925C53.3765 61.5925 61.5213 53.4356 61.5213 43.4156C61.5213 33.3898 53.3765 25.2387 43.3649 25.2387Z" fill="#A829F9" stroke="#A829F9" stroke-width="1.5" stroke-miterlimit="10"/>
<path d="M58.9369 20.0584C58.9369 21.3463 57.0901 22.8231 57.3645 24.0281C57.6475 25.2702 59.9575 25.8025 60.4978 26.9216C61.0467 28.0635 60.0261 30.2015 60.8094 31.1832C61.5927 32.1677 63.9055 31.644 64.8889 32.4282C65.8666 33.2095 65.8667 35.585 67.0073 36.1345C68.128 36.6754 69.9805 35.2015 71.2241 35.4848C72.4276 35.7567 73.4568 37.8975 74.7433 37.8975C76.0298 37.8975 77.0589 35.7567 78.2596 35.4848C79.5032 35.2044 81.3529 36.6754 82.4764 36.1345C83.6171 35.585 83.6171 33.2095 84.5977 32.4282C85.5782 31.6411 87.8939 32.1649 88.6772 31.1832C89.4605 30.2015 88.4371 28.0664 88.9831 26.9216C89.5263 25.8025 91.8391 25.2702 92.1192 24.0281C92.3937 22.8231 90.5469 21.3463 90.5469 20.0584C90.5469 18.7705 92.3937 17.2937 92.1192 16.0887C91.8391 14.8437 89.5234 14.3171 88.9831 13.1923C88.4342 12.0532 89.4577 9.91529 88.6772 8.93647C87.8882 7.94906 85.5782 8.47568 84.5948 7.68861C83.6171 6.90728 83.6171 4.53177 82.4764 3.98226C81.3558 3.44133 79.5032 4.91529 78.2596 4.63195C77.0589 4.36005 76.0269 2.21924 74.7433 2.21924C73.4568 2.21924 72.4276 4.36005 71.2241 4.63195C69.9805 4.91529 68.1308 3.44133 67.0073 3.98226C65.8667 4.53177 65.8666 6.90728 64.8889 7.68861C63.9055 8.47568 61.5927 7.95192 60.8094 8.93647C60.0261 9.91529 61.0495 12.0532 60.4978 13.1923C59.9575 14.3171 57.6475 14.8437 57.3645 16.0887C57.0872 17.2937 58.9369 18.7705 58.9369 20.0584Z" fill="white" stroke="#A829F9" stroke-width="1.5" stroke-miterlimit="10"/>
</svg>
