<svg width="150" height="121" viewBox="0 0 150 121" fill="none" xmlns="http://www.w3.org/2000/svg">
<path d="M67.9898 46.7451C68.6826 40.9445 70.2305 40.1591 74.2227 42.2259C75.0672 42.6549 76.0352 42.8671 76.8883 43.283C79.4203 44.515 80.9581 43.6879 81.9175 41.2548C82.6551 39.3594 83.3927 37.4641 84.1799 35.5791C84.5563 34.6628 85.107 33.7383 85.3843 32.8012C85.6255 32.0051 85.6948 31.6136 86.671 31.3275C87.4249 31.094 88.2826 31.0455 88.9633 31.3808C89.7891 31.7811 89.8797 32.4436 89.8077 33.2107C89.7112 34.2153 89.7684 35.2717 89.7623 36.3101C89.7737 38.5797 89.7628 40.8546 89.752 43.1295C89.7166 47.6716 89.6454 52.211 89.5297 56.761C89.4686 59.3126 87.1375 60.4046 84.5642 59.2926C82.7247 58.4924 80.9437 57.546 79.1077 56.7118C77.4304 55.9504 76.2229 55.8169 75.4554 58.0723C74.6138 60.5548 73.6868 63.0244 72.7052 65.4628C72.217 66.6924 71.71 67.8934 71.1945 69.1074C70.9642 69.6583 70.6536 70.2172 70.4728 70.7784C70.3333 71.2195 70.3938 71.6133 69.9557 71.9376C69.5963 72.1991 69.1246 72.2887 68.6684 72.2973C68.0961 72.3114 67.4848 72.2133 67.0193 71.8933C66.1478 71.3053 66.3741 70.3031 66.4157 69.4108C66.4852 68.2471 66.5548 67.0835 66.6243 65.9198C66.7615 63.6812 66.9209 61.4373 67.0803 59.1934C67.3778 55.0527 67.4857 50.8575 67.9898 46.7451Z" fill="#3FF5D2"/>
<path d="M123.286 82.9499C121.732 80.9111 120.458 79.3025 119.269 77.652C117.291 74.8855 118.06 73.4561 121.652 72.9928C125.253 72.5166 128.849 72.0194 132.45 71.5431C134.248 71.2945 136.051 71.0668 137.853 70.8391C139.005 70.6883 141.628 69.8691 142.61 70.6636C143.123 71.083 143.096 71.8402 143.015 72.4774C142.761 74.381 140.432 74.3799 138.961 75.2467C136.921 76.4356 134.027 77.3518 133.243 79.0606C132.662 80.3461 134.865 82.6841 135.731 84.5988C136.688 86.7458 135.523 87.9488 133.358 88.3833C127.613 89.5213 121.875 90.5914 116.123 91.6537C114.56 91.9462 110.346 93.3844 109.561 91.318C109.038 89.9405 110.536 89.3765 111.559 88.8474C112.813 88.1977 114.066 87.548 115.325 86.9192C117.973 85.5752 120.632 84.273 123.286 82.9499Z" fill="#3FF5D2"/>
<path d="M35.5096 71.5403C35.2519 71.7017 34.9151 71.7814 34.6042 71.8215C33.0497 72.0221 31.5842 71.2203 30.2286 70.6267C28.6488 69.9411 27.069 69.2556 25.4979 68.5568C22.3055 67.1489 19.1479 65.6881 16.0371 64.127C11.7607 61.9719 11.39 60.398 14.9954 58.2286C15.4623 57.9509 15.7794 57.4966 16.2085 57.1609C17.3487 56.233 19.6177 54.7703 19.4698 54.5042C18.5814 52.8521 17.2194 51.4012 15.8503 50.019C14.5879 48.7341 13.2149 47.5312 11.9041 46.2913C10.9327 45.3725 9.13135 44.2153 9.401 42.7351C9.46399 42.4079 9.59436 42.0648 9.8729 41.8428C10.1601 41.6075 10.5608 41.5461 10.9234 41.5718C12.5649 41.7297 14.3501 43.1139 15.7641 43.8498C17.44 44.7357 19.116 45.6215 20.7782 46.4994C24.1302 48.2711 27.4597 50.0481 30.8377 51.7801C33.8208 53.3045 34.2632 55.1738 31.7271 57.1011C26.783 60.8475 27.1117 61.2716 31.5446 65.7316C32.5315 66.7136 33.501 67.7221 34.4653 68.7094C35.0198 69.2808 36.621 70.3962 35.7744 71.3103C35.705 71.416 35.6117 71.4715 35.5096 71.5403Z" fill="#3FF5D2"/>
</svg>
