<svg width="1440" height="1204" viewBox="0 0 1440 1204" fill="none" xmlns="http://www.w3.org/2000/svg">
<path d="M-80.3476 667.529C-49.4739 709.787 65.4249 791.165 278.03 778.612C490.636 766.058 632.403 640.209 678.349 580.974C741.843 520.216 894.917 387.055 1096.73 427.868C1298.55 468.68 1370.41 569.735 1381.11 615.161" stroke="#F7F7F7" stroke-width="3" stroke-linecap="round" stroke-linejoin="round" stroke-dasharray="10 10"/>
<path d="M1393.46 616.772L1386.25 623.095L1389.64 638.483L1383.92 625.095L1372.37 634.535C1372.17 634.698 1372.02 634.906 1371.93 635.14C1371.83 635.374 1371.79 635.629 1371.81 635.881C1371.83 636.134 1371.92 636.377 1372.05 636.591C1372.19 636.805 1372.38 636.983 1372.59 637.11L1393.14 649.01C1393.37 649.147 1393.64 649.22 1393.92 649.221C1394.19 649.222 1394.46 649.152 1394.7 649.017C1394.94 648.882 1395.14 648.687 1395.28 648.452C1395.42 648.216 1395.5 647.948 1395.51 647.673L1396.06 618.01C1396.07 617.707 1395.98 617.409 1395.82 617.151C1395.66 616.894 1395.43 616.688 1395.16 616.557C1394.89 616.427 1394.58 616.378 1394.28 616.416C1393.98 616.454 1393.7 616.578 1393.46 616.772Z" fill="white"/>
</svg>
