<svg width="396" height="313" viewBox="0 0 396 313" fill="none" xmlns="http://www.w3.org/2000/svg">
<path d="M358.657 209.355L99.6031 300.834C81.9513 307.067 62.7928 297.183 57.0287 278.868L15.6669 147.445C9.90277 129.13 19.6291 109.046 37.281 102.812L296.335 11.3333C313.987 5.09992 333.146 14.9847 338.91 33.2996L380.271 164.722C386.036 183.037 376.309 203.122 358.657 209.355Z" fill="#FF870A"/>
<path d="M58.0391 127.178C61.6352 126.061 64.9359 126.651 67.4908 127.95L67.9705 128.183L65.2639 133.932L64.7843 133.699C62.9703 132.82 61.1619 132.724 59.2453 133.42C57.3024 134.125 55.8906 135.327 54.9395 137.083C53.9709 138.878 53.7451 140.621 54.2797 142.372C54.8228 144.15 55.9361 145.408 57.7155 146.173C59.4687 146.948 61.2513 146.96 63.1679 146.264C65.1107 145.559 66.5054 144.3 67.4568 142.45L67.7123 141.949L73.0397 144.782L72.7842 145.283C72.0349 146.84 71.0329 148.239 69.6994 149.507C68.3573 150.746 66.7542 151.704 64.9689 152.352C61.3983 153.648 57.9471 153.521 54.6939 152.036C51.5896 150.466 49.468 147.912 48.4249 144.497C47.3817 141.081 47.6756 137.65 49.2885 134.337C51.0852 130.956 53.7776 128.599 57.322 127.313L58.0046 127.065L58.0391 127.178Z" fill="white"/>
<path d="M75.3785 148.631L78.9174 119.981L80.2312 119.504L98.8423 140.114L92.7464 142.327L89.8911 139.189L82.0086 142.05L81.4481 146.428L75.3785 148.631ZM82.9859 136.267L85.9287 135.199L83.4393 132.399L82.9859 136.267Z" fill="white"/>
<path d="M93.7119 114.843L99.2848 112.822L104.971 131.428L115.149 127.736L116.973 133.704L101.222 139.416L93.7119 114.843Z" fill="white"/>
<path d="M121.681 104.62C125.203 103.342 128.185 103.641 131.458 105.184C134.601 106.774 136.689 109.312 137.742 112.759C138.795 116.206 138.492 119.612 136.869 122.901C135.114 126.237 132.857 128.406 129.336 129.684C125.814 130.962 122.806 130.673 119.576 129.177C116.468 127.606 114.345 125.049 113.301 121.63C112.256 118.211 112.551 114.777 114.165 111.46C115.938 108.086 118.186 105.889 121.681 104.62ZM123.537 110.695C121.618 111.392 120.625 112.443 119.7 114.191C118.73 115.987 118.53 117.723 119.065 119.475C119.609 121.255 120.723 122.514 122.478 123.29C124.207 124.075 125.544 124.249 127.463 123.552C129.355 122.866 130.322 121.824 131.3 120.057C132.278 118.289 132.487 116.581 131.934 114.773C131.391 112.993 130.276 111.733 128.521 110.958C126.801 110.201 125.455 109.999 123.537 110.695Z" fill="white"/>
<path d="M155.756 108.971L151.292 94.3573L156.907 92.3197L161.43 107.131C162.275 109.896 162.037 112.646 160.742 115.278C159.421 117.92 157.23 119.812 154.266 120.888C151.248 121.982 148.454 121.9 145.945 120.648C143.461 119.387 141.758 117.341 140.913 114.577L136.39 99.7656L142.004 97.728L146.468 112.342C146.812 113.47 147.56 114.296 148.737 114.809C149.905 115.294 151.101 115.298 152.387 114.832C154.722 113.984 156.488 111.369 155.756 108.971Z" fill="white"/>
<path d="M167.705 115.98L160.16 91.374L168.525 88.3387C169.888 87.8439 171.286 87.556 172.7 87.5127C173.956 87.5265 175.125 87.823 176.248 88.3549C178.147 89.326 179.513 90.4592 180.357 93.2225L180.546 93.8429C181.063 95.5347 181.029 97.3322 180.463 99.1978C180.048 100.507 179.608 101.262 178.697 102.188L186.899 109.015L180.082 111.489L170.353 104.339L173.29 113.954L167.705 115.98ZM174.725 95.8611C174.493 95.0998 174.006 94.5559 173.222 94.1827C172.456 93.8658 171.111 94.0405 170.062 94.4211L167.597 95.3155L169.346 101.04L171.417 100.288L171.426 100.316L172.632 99.8783C174.179 99.317 175.242 97.5529 174.725 95.8611Z" fill="white"/>
<path d="M187.869 108.907L191.408 80.2576L192.722 79.7808L211.333 100.391L205.237 102.603L202.382 99.4658L194.473 102.336L193.913 106.713L187.869 108.907ZM195.503 96.5334L198.446 95.4654L195.956 92.6658L195.503 96.5334Z" fill="white"/>
<path d="M58.3653 168.254L75.736 176.366L71.7724 163.388L77.5446 161.294L85.084 185.979L83.8246 186.436L66.4974 178.371L70.4437 191.292L64.6715 193.387L57.1321 168.702L58.3653 168.254Z" fill="white"/>
<path d="M87.5022 185.358L91.0411 156.709L92.3548 156.232L110.966 176.842L104.87 179.054L102.015 175.917L94.1059 178.787L93.5455 183.165L87.5022 185.358ZM95.1272 172.956L98.07 171.888L95.5806 169.089L95.1272 172.956Z" fill="white"/>
<path d="M114.942 166.922C115.217 167.823 116.513 168.353 117.629 168.105L117.917 168C119.095 167.573 120.041 166.198 119.749 165.241C119.25 163.608 116.712 164.247 114.472 164.339C110.996 164.475 107.569 162.965 106.519 159.53C105.237 155.335 107.555 150.741 112.161 149.07C116.349 147.551 120.437 149.415 122.121 153.12L122.32 153.58L116.844 156.973C116.38 155.453 115.468 154.564 114.029 155.086C112.929 155.485 112.245 156.671 112.564 157.713C113.063 159.346 115.547 159.008 117.647 158.84C121.186 158.526 124.665 159.923 125.749 163.47C127.04 167.694 124.356 172.421 119.802 174.073C115.614 175.592 111.256 173.889 109.475 170.156L109.251 169.705L114.7 166.321L114.889 166.941L114.942 166.922Z" fill="white"/>
<path d="M139.003 166.944L131.484 142.541L136.983 140.56L144.502 164.964L139.003 166.944Z" fill="#A829F9"/>
<path d="M147.251 136.871L147.741 136.662C151.782 135.195 155.615 135.434 158.553 136.75C161.385 138.198 163.357 140.741 164.443 144.296C165.528 147.851 165.349 151.176 163.869 154.158C161.768 157.584 158.517 160.111 154.267 161.654L147.681 164.044L140.158 139.414L147.243 136.842L147.251 136.871ZM149.577 142.671L148.107 143.204L152.029 155.853L152.658 155.625C157.198 153.977 159.394 150.767 158.652 146.429C157.36 142.291 153.591 141.214 149.577 142.671Z" fill="#A829F9"/>
<path d="M163.054 131.303L178.804 125.591L180.636 131.586L170.72 135.183L171.744 138.532L179.358 135.771L181.19 141.766L173.577 144.528L174.6 147.877L184.516 144.281L186.34 150.248L170.59 155.96L163.054 131.303Z" fill="#A829F9"/>
<path d="M188.642 149.415L181.123 125.012L186.622 123.031L194.141 147.435L188.642 149.415Z" fill="#A829F9"/>
<path d="M196.463 146.881L200.002 118.232L201.316 117.755L219.927 138.365L213.831 140.577L210.975 137.44L203.067 140.31L202.506 144.688L196.463 146.881ZM204.088 134.479L207.031 133.411L204.541 130.612L204.088 134.479Z" fill="#A829F9"/>
<path d="M223.902 128.445C224.178 129.346 225.474 129.877 226.59 129.628L226.904 129.514C228.082 129.087 229.028 127.712 228.735 126.754C228.236 125.121 225.699 125.76 223.459 125.853C219.982 125.988 216.555 124.479 215.506 121.044C214.224 116.849 216.541 112.255 221.148 110.584C225.336 109.065 229.423 110.929 231.108 114.634L231.307 115.093L225.831 118.487C225.366 116.967 224.455 116.077 223.015 116.6C221.916 116.998 221.232 118.185 221.55 119.227C222.049 120.86 224.534 120.522 226.634 120.354C230.172 120.04 233.652 121.436 234.736 124.984C236.027 129.208 233.343 133.934 228.789 135.586C224.601 137.105 220.242 135.402 218.462 131.669L218.237 131.219L223.687 127.835L223.876 128.454L223.902 128.445Z" fill="#A829F9"/>
<path d="M239.226 124.434L239.453 124.226L240.3 123.856C242.344 122.927 244.866 124.422 245.563 126.704C246.269 129.014 245.94 130.792 245.27 132.505C244.918 133.353 244.269 134.277 243.369 134.948C242.967 135.25 242.434 135.412 241.797 135.518C241.213 135.605 240.759 135.738 240.307 135.401C239.447 134.681 240.418 133.671 240.83 133.209C241.215 132.756 241.251 132.493 241.174 132.239C239.744 132.132 238.257 131.263 237.706 129.46C237.147 127.535 237.879 125.455 239.226 124.434Z" fill="white"/>
<path d="M91.1587 197.494L87.6288 226.169L86.4202 226.608L67.881 205.943L73.8449 203.778L83.3492 214.449L85.116 199.687L91.1587 197.494Z" fill="white"/>
<path d="M93.5424 196.828L109.292 191.115L111.125 197.111L101.209 200.707L102.233 204.057L109.846 201.295L111.679 207.291L104.065 210.052L105.089 213.402L115.005 209.805L116.828 215.773L101.079 221.485L93.5424 196.828Z" fill="white"/>
<path d="M110.818 190.786L128.66 184.313L130.485 190.286L124.643 192.406L130.577 210.975L124.263 213.265L118.494 194.668L112.652 196.788L110.818 190.786Z" fill="white"/>
<path d="M131.012 183.596L146.762 177.884L148.595 183.879L138.679 187.476L139.703 190.825L147.316 188.064L149.148 194.059L141.535 196.821L142.559 200.17L152.475 196.574L154.298 202.541L138.549 208.253L131.012 183.596Z" fill="white"/>
<path d="M156.702 201.883L149.157 177.277L157.521 174.242C158.885 173.747 160.282 173.459 161.696 173.416C162.953 173.429 164.121 173.726 165.245 174.258C167.144 175.229 168.509 176.362 169.353 179.125L169.543 179.746C170.06 181.438 170.026 183.235 169.46 185.101C169.044 186.41 168.605 187.165 167.694 188.091L175.896 194.918L169.078 197.392L159.35 190.241L162.287 199.857L156.702 201.883ZM163.714 181.736C163.481 180.974 162.994 180.431 162.211 180.057C161.444 179.74 160.099 179.915 159.05 180.296L156.585 181.19L158.334 186.914L160.405 186.162L160.414 186.191L161.62 185.753C163.167 185.192 164.23 183.428 163.714 181.736Z" fill="white"/>
<path d="M176.866 194.81L180.405 166.16L181.719 165.684L200.33 186.294L194.234 188.506L191.379 185.369L183.47 188.239L182.91 192.616L176.866 194.81ZM184.492 182.408L187.434 181.34L184.945 178.54L184.492 182.408Z" fill="white"/>
<path d="M196.423 160.48L213.794 168.592L209.831 155.614L215.603 153.519L223.142 178.205L221.883 178.662L204.556 170.597L208.502 183.518L202.73 185.613L195.19 160.927L196.423 160.48Z" fill="white"/>
<path d="M225.569 177.611L229.108 148.962L230.422 148.485L249.033 169.095L242.937 171.308L240.082 168.17L232.173 171.041L231.613 175.418L225.569 177.611ZM233.168 165.219L236.111 164.151L233.622 161.352L233.168 165.219Z" fill="white"/>
<path d="M81.5878 242.04L98.9585 250.152L94.9949 237.175L100.767 235.08L108.307 259.765L107.047 260.222L89.7199 252.157L93.6662 265.078L87.894 267.173L80.3546 242.488L81.5878 242.04Z" fill="white"/>
<path d="M110.725 259.144L114.264 230.495L115.577 230.018L134.188 250.628L128.093 252.841L125.237 249.703L117.328 252.574L116.768 256.951L110.725 259.144ZM118.358 246.771L121.301 245.703L118.812 242.903L118.358 246.771Z" fill="white"/>
<path d="M138.164 240.708C138.439 241.609 139.735 242.14 140.851 241.891L141.139 241.787C142.317 241.359 143.263 239.984 142.971 239.027C142.472 237.394 139.934 238.033 137.694 238.126C134.218 238.261 130.791 236.751 129.741 233.316C128.459 229.121 130.777 224.527 135.383 222.856C139.571 221.337 143.659 223.201 145.343 226.906L145.542 227.366L140.066 230.76C139.602 229.239 138.69 228.35 137.251 228.872C136.151 229.271 135.467 230.457 135.786 231.499C136.285 233.132 138.769 232.794 140.869 232.626C144.408 232.313 147.887 233.709 148.972 237.257C150.262 241.48 147.578 246.207 143.024 247.859C138.836 249.378 134.478 247.675 132.697 243.942L132.473 243.492L137.922 240.107L138.111 240.727L138.164 240.708Z" fill="white"/>
<path d="M164.749 231.32C165.024 232.221 166.32 232.752 167.436 232.503L167.724 232.399C168.902 231.972 169.848 230.596 169.556 229.639C169.056 228.006 166.519 228.645 164.279 228.738C160.803 228.873 157.376 227.364 156.326 223.929C155.044 219.733 157.362 215.139 161.968 213.468C166.156 211.949 170.243 213.813 171.928 217.519L172.127 217.978L166.651 221.372C166.186 219.851 165.275 218.962 163.836 219.484C162.736 219.883 162.052 221.07 162.371 222.111C162.87 223.744 165.354 223.406 167.454 223.239C170.993 222.925 174.472 224.321 175.556 227.869C176.847 232.092 174.163 236.819 169.609 238.471C165.421 239.99 161.063 238.287 159.282 234.554L159.057 234.104L164.507 230.72L164.696 231.339L164.749 231.32Z" fill="#A829F9"/>
<path d="M183.987 205.614C187.509 204.336 190.49 204.635 193.764 206.177C196.906 207.768 198.995 210.305 200.048 213.753C201.101 217.2 200.798 220.606 199.175 223.894C197.42 227.231 195.163 229.4 191.641 230.678C188.12 231.956 185.112 231.667 181.881 230.171C178.774 228.599 176.65 226.043 175.606 222.624C174.562 219.205 174.856 215.771 176.471 212.454C178.243 209.08 180.465 206.892 183.987 205.614ZM185.842 211.689C183.924 212.385 182.931 213.436 182.005 215.185C181.036 216.981 180.836 218.717 181.371 220.469C181.915 222.249 183.029 223.508 184.784 224.284C186.513 225.069 187.85 225.242 189.769 224.546C191.661 223.859 192.627 222.818 193.606 221.05C194.584 219.283 194.792 217.575 194.24 215.766C193.696 213.986 192.582 212.727 190.827 211.952C189.107 211.195 187.735 211.002 185.842 211.689Z" fill="#A829F9"/>
<path d="M198.676 200.773L204.249 198.752L209.935 217.358L220.113 213.666L221.937 219.634L206.186 225.346L198.676 200.773Z" fill="#A829F9"/>
<path d="M234.722 204.082L230.259 189.468L235.874 187.431L240.397 202.242C241.242 205.006 241.003 207.757 239.709 210.389C238.388 213.03 236.197 214.922 233.232 215.998C230.215 217.093 227.421 217.01 224.911 215.759C222.428 214.498 220.725 212.452 219.88 209.688L215.357 194.876L220.971 192.839L225.435 207.452C225.779 208.581 226.527 209.406 227.704 209.919C228.872 210.404 230.068 210.409 231.354 209.942C233.689 209.095 235.455 206.48 234.722 204.082Z" fill="#A829F9"/>
<path d="M255.893 207.646C253.217 208.117 250.639 207.769 248.195 206.623C245.108 205.084 242.992 202.536 241.951 199.129C240.901 195.694 241.202 192.301 242.809 188.996C244.573 185.635 247.257 183.286 250.816 181.994L251.497 181.748L251.496 181.842C253.067 181.366 254.609 181.182 256.177 181.27C257.902 181.395 259.494 181.849 260.955 182.633L261.433 182.866L258.745 188.627L258.267 188.394C256.458 187.517 254.655 187.421 252.744 188.114C250.807 188.816 249.409 190.043 248.47 191.822C247.513 193.639 247.297 195.407 247.848 197.209C248.407 199.039 249.526 200.322 251.309 201.114C253.066 201.916 254.852 201.956 256.763 201.263C258.673 200.57 260.107 199.362 261.09 197.535L261.344 197.036L266.579 199.61L266.351 200.099C265.21 202.359 263.407 204.451 260.849 205.88C261.664 209.025 261.173 212.174 259.998 214.039L258.736 215.998L253.597 213.358L254.698 212.49C254.768 212.433 255.198 211.745 255.734 210.55C256.051 209.685 256.063 208.679 255.893 207.646Z" fill="#A829F9"/>
<path d="M271.847 174.697C275.36 173.422 278.361 173.712 281.601 175.261C284.709 176.857 286.82 179.38 287.87 182.82C288.921 186.259 288.619 189.657 287 192.938C285.25 196.267 282.999 198.43 279.486 199.705C275.973 200.98 272.972 200.691 269.749 199.198C266.649 197.63 264.539 195.107 263.488 191.667C262.446 188.256 262.739 184.83 264.349 181.521C266.091 178.164 268.334 175.972 271.847 174.697ZM273.69 180.731C271.776 181.425 270.812 182.464 269.862 184.218C268.887 185.981 268.687 187.714 269.23 189.49C269.781 191.294 270.893 192.551 272.635 193.296C274.36 194.08 275.703 194.282 277.617 193.587C279.505 192.902 280.469 191.863 281.444 190.1C282.429 188.365 282.628 186.632 282.077 184.828C281.534 183.052 280.422 181.795 278.671 181.021C276.92 180.247 275.577 180.046 273.69 180.731ZM276.848 170.095L277.092 170.226L276.916 170.697C275.875 173.486 274.218 173.022 271.278 173.025C269.419 173.042 268.747 173.129 268.466 173.356C268.072 173.687 267.555 174.376 267.018 175.479L266.428 176.695L265.04 172.532C265.542 171.41 266.175 170.429 266.954 169.833C267.803 169.181 268.867 169.233 270.996 169.337C272.924 169.452 273.57 169.374 273.798 169.166C274.183 168.807 274.613 168.213 275.036 167.308L275.643 165.96L276.848 170.095Z" fill="#A829F9"/>
<path d="M286.383 169.739L302.133 164.027L303.966 170.022L294.05 173.619L295.074 176.968L302.687 174.207L304.52 180.202L296.906 182.964L297.93 186.313L307.846 182.717L309.669 188.684L293.92 194.396L286.383 169.739Z" fill="#A829F9"/>
<path d="M314.468 178.45C314.744 179.351 316.04 179.882 317.156 179.633L317.444 179.529C318.622 179.102 319.568 177.726 319.275 176.769C318.776 175.136 316.239 175.775 313.999 175.868C310.522 176.003 307.096 174.494 306.046 171.059C304.764 166.863 307.081 162.269 311.688 160.598C315.876 159.079 319.963 160.943 321.648 164.648L321.847 165.108L316.371 168.502C315.906 166.981 314.995 166.092 313.555 166.614C312.456 167.013 311.772 168.199 312.09 169.241C312.589 170.874 315.074 170.536 317.174 170.369C320.713 170.055 324.192 171.451 325.276 174.999C326.567 179.222 323.883 183.949 319.329 185.601C315.141 187.12 310.783 185.417 309.002 181.684L308.777 181.234L314.227 177.85L314.416 178.469L314.468 178.45Z" fill="#A829F9"/>
<path d="M328.271 179.453C327.59 177.222 328.736 174.766 330.812 174.013C332.861 173.269 335.164 174.504 335.836 176.707C336.518 178.938 335.345 181.403 333.296 182.147C331.221 182.9 328.952 181.684 328.271 179.453Z" fill="white"/>
</svg>
