<svg width="90" height="90" viewBox="0 0 90 90" fill="none" xmlns="http://www.w3.org/2000/svg">
<path d="M45.0002 90.0001C69.8375 90.0001 90.0001 69.7831 90.0001 45.0002C90.0001 20.2167 69.8375 0 45.0002 0C20.1626 0 0 20.2167 0 45.0002C0 69.7831 20.1626 90.0001 45.0002 90.0001ZM9.67717 62.1976C9.11599 56.6093 9.08309 50.8432 9.08309 45.0002C9.08309 39.1569 9.11599 33.3908 9.67717 27.8025C9.98231 24.759 11.4977 24.0609 14.3206 23.764C24.08 22.7374 34.8868 22.4997 45.0002 22.5307C55.1136 22.4997 65.9203 22.7374 75.6797 23.764C78.5027 24.0609 80.018 24.759 80.3232 27.8025C80.8841 33.3908 80.9173 39.1569 80.9173 45.0002C80.9173 50.8432 80.8841 56.6093 80.3232 62.1976C80.018 65.241 78.5027 65.9389 75.6797 66.2358C65.9203 67.2624 55.1136 67.5004 45.0002 67.4693C34.8868 67.5004 24.08 67.2624 14.3206 66.2358C11.4977 65.9389 9.98231 65.241 9.67717 62.1976Z" fill="black"/>
<path d="M45.0002 63.1196C55.0751 63.1196 63.1942 54.979 63.1942 45.0001C63.1942 35.021 55.0751 26.8804 45.0002 26.8804C34.9252 26.8804 26.8064 35.021 26.8064 45.0001C26.8064 54.979 34.9252 63.1196 45.0002 63.1196Z" fill="black"/>
</svg>
