<svg width="172" height="171" viewBox="0 0 172 171" fill="none" xmlns="http://www.w3.org/2000/svg">
<path d="M100.084 17.6083L99.8032 17.4486C100.064 24.4235 100.421 31.5444 99.4196 38.487C98.7328 43.0934 97.4798 47.6422 95.391 51.8203C93.3704 55.9109 90.9635 58.7852 90.1046 63.4251C87.4718 77.6797 96.8965 91.3675 111.151 93.9871C123.958 96.3601 136.958 88.6149 140.92 76.1712C145.485 61.86 138.477 51.7143 129.123 41.3784C120.729 32.024 111.161 23.708 100.084 17.6083Z" fill="#3FF5D2" stroke="#3FF5D2" stroke-miterlimit="10"/>
<path d="M130.417 54.6922C123.173 46.2738 110.469 45.3274 102.043 52.5784C93.6168 59.8294 92.6588 72.532 99.9032 80.9504C107.148 89.3689 119.851 90.3153 128.277 83.0643C136.703 75.8132 137.661 63.1107 130.417 54.6922Z" fill="white" stroke="white" stroke-miterlimit="10"/>
<path d="M125.921 58.8753C120.878 53.0142 112.033 52.3553 106.167 57.4036C100.3 62.4519 99.6334 71.2956 104.677 77.1567C109.721 83.0177 118.565 83.6766 124.431 78.6283C130.298 73.5801 130.965 64.7363 125.921 58.8753Z" fill="black" stroke="black" stroke-miterlimit="10"/>
<path d="M80.8653 36.4418C80.9029 36.3521 80.9405 36.2623 80.9946 36.1584C80.957 36.2481 80.7779 36.3736 80.4926 36.4757C80.4596 36.5041 80.4454 36.4876 80.4454 36.4876C66.1367 38.4753 52.4649 43.4715 39.6141 50.0557C25.3558 57.3061 13.6633 65.3029 12.6887 82.5188C11.8382 97.4769 22.5817 111.062 37.2749 113.792C53.613 116.798 69.3429 105.987 72.3807 89.6339C73.3684 84.3096 71.9609 80.2721 71.4906 75.0551C70.966 69.7416 71.5123 64.3381 72.6629 59.1031C74.4089 51.2907 77.7172 43.8259 80.8653 36.4418C80.7403 36.4633 80.6153 36.4848 80.4761 36.4899C80.4431 36.5183 80.4289 36.5018 80.4289 36.5018" fill="#3FF5D2"/>
<path d="M80.8653 36.4418C80.9029 36.3521 80.9405 36.2623 80.9946 36.1584C80.957 36.2481 80.7779 36.3736 80.4926 36.4757C80.4596 36.5041 80.4454 36.4876 80.4454 36.4876C66.1367 38.4753 52.4649 43.4715 39.6141 50.0557C25.3558 57.3061 13.6633 65.3029 12.6887 82.5188C11.8382 97.4769 22.5817 111.062 37.2749 113.792C53.613 116.798 69.3429 105.987 72.3807 89.6339C73.3684 84.3096 71.9609 80.2721 71.4906 75.0551C70.966 69.7416 71.5123 64.3381 72.6629 59.1031C74.4089 51.2907 77.7172 43.8259 80.8653 36.4418ZM80.8653 36.4418C80.7403 36.4633 80.6153 36.4848 80.4761 36.4899C80.4431 36.5183 80.4289 36.5018 80.4289 36.5018" stroke="#3FF5D2" stroke-miterlimit="10"/>
<path d="M61.2233 69.0621C52.9138 59.4059 38.3426 58.3204 28.6776 66.6375C19.0126 74.9546 17.9137 89.5248 26.2231 99.181C34.5326 108.837 49.1039 109.923 58.7689 101.606C68.4339 93.2885 69.5328 78.7183 61.2233 69.0621Z" fill="white" stroke="white" stroke-miterlimit="10"/>
<path d="M55.6671 73.8146C49.8873 67.098 39.752 66.343 33.0293 72.1281C26.3066 77.9132 25.5422 88.0478 31.322 94.7644C37.1019 101.481 47.2372 102.236 53.9599 96.4509C60.6826 90.6658 61.4469 80.5311 55.6671 73.8146Z" fill="black" stroke="black" stroke-miterlimit="10"/>
<path d="M89.1481 95.7407C89.1481 95.7407 89.1339 95.7242 89.1197 95.7077C89.063 95.6418 89.0063 95.5759 88.9495 95.51C87.1996 100.716 85.5019 106.049 82.8691 110.896C81.1138 114.127 78.9573 117.159 76.3281 119.708C73.7484 122.215 71.245 123.71 69.3694 126.901C63.5543 136.724 66.4679 149.217 75.9041 154.778C84.3792 159.789 95.757 157.398 102.016 149.259C109.247 139.881 107.032 130.601 103.235 120.618C99.8289 111.589 95.3239 103.017 89.1481 95.7407C89.1481 95.7407 89.1339 95.7242 89.1197 95.7077C89.0251 95.531 88.9895 95.3896 89.0106 95.314C88.9895 95.3896 88.9707 95.4345 88.9495 95.51" fill="#3FF5D2"/>
<path d="M89.1197 95.7077C89.1339 95.7242 89.1481 95.7407 89.1481 95.7407C95.3239 103.017 99.8289 111.589 103.235 120.618C107.032 130.601 109.247 139.881 102.016 149.259C95.757 157.398 84.3792 159.789 75.9041 154.778C66.4679 149.217 63.5543 136.724 69.3694 126.901C71.245 123.71 73.7484 122.215 76.3281 119.708C78.9573 117.159 81.1138 114.127 82.8691 110.896C85.5019 106.049 87.1996 100.716 88.9495 95.51M89.1197 95.7077C89.063 95.6418 89.0063 95.5759 88.9495 95.51M89.1197 95.7077C89.0251 95.531 88.9895 95.3896 89.0106 95.3141C88.9895 95.3896 88.9707 95.4345 88.9495 95.51" stroke="#3FF5D2" stroke-miterlimit="10"/>
<path d="M94.0628 122.912C86.8478 118.647 77.3866 121.292 72.9307 128.82C68.4747 136.348 70.7114 145.908 77.9265 150.174C85.1415 154.439 94.6027 151.794 99.0587 144.266C103.515 136.737 101.278 127.177 94.0628 122.912Z" fill="white" stroke="white" stroke-miterlimit="10"/>
<path d="M91.6449 127.226C86.6212 124.256 80.0331 126.099 76.9298 131.342C73.8266 136.584 75.3834 143.242 80.407 146.212C85.4307 149.181 92.0188 147.339 95.1221 142.096C98.2253 136.853 96.6685 130.195 91.6449 127.226Z" fill="black" stroke="black" stroke-miterlimit="10"/>
</svg>
