<svg width="146" height="146" viewBox="0 0 146 146" fill="none" xmlns="http://www.w3.org/2000/svg">
<path d="M64.7452 130.876L64.9928 130.993C64.3307 125.115 63.5774 119.12 63.9842 113.189C64.2728 109.252 65.0436 105.328 66.5443 101.665C67.9928 98.0798 69.8448 95.4981 70.2768 91.5224C71.5989 79.3084 62.7665 68.3373 50.5537 67.0264C39.5791 65.8322 29.0829 73.2016 26.5232 83.9693C23.5717 96.3535 30.1374 104.484 38.6974 112.627C46.3844 120.001 54.9973 126.423 64.7452 130.876Z" fill="#A1FD03" stroke="#A1FD03" stroke-miterlimit="10"/>
<path d="M36.7604 101.457C43.4163 108.113 54.2125 108.108 60.8744 101.446C67.5363 94.7838 67.5413 83.9876 60.8854 77.3317C54.2296 70.6759 43.4334 70.6808 36.7715 77.3428C30.1095 84.0047 30.1046 94.8009 36.7604 101.457Z" fill="white" stroke="white" stroke-miterlimit="10"/>
<path d="M40.2951 97.6368C44.929 102.271 52.4455 102.267 57.0837 97.6291C61.7218 92.991 61.7253 85.4745 57.0913 80.8406C52.4574 76.2067 44.941 76.2102 40.3028 80.8483C35.6647 85.4865 35.6612 93.0029 40.2951 97.6368Z" fill="black" stroke="black" stroke-miterlimit="10"/>
<path d="M79.7947 113.742C79.7686 113.82 79.7425 113.898 79.7034 113.989C79.7295 113.911 79.8729 113.794 80.1076 113.689C80.1337 113.663 80.1467 113.676 80.1467 113.676C92.1136 111.09 103.352 106.001 113.795 99.6227C125.386 92.5918 134.762 85.0926 134.495 70.481C134.266 57.7854 124.325 46.9843 111.735 45.6084C97.7361 44.1028 85.127 54.2364 83.5956 68.2493C83.0982 72.8116 84.5435 76.1348 85.2714 80.5141C86.0515 84.9715 85.932 89.5728 85.2913 94.07C84.3106 100.783 81.9875 107.302 79.7947 113.742C79.899 113.716 80.0033 113.689 80.1206 113.676C80.1467 113.65 80.1597 113.663 80.1597 113.663" fill="#A1FD03"/>
<path d="M79.7947 113.742C79.7686 113.82 79.7425 113.898 79.7034 113.989C79.7295 113.911 79.8729 113.794 80.1076 113.689C80.1337 113.663 80.1467 113.676 80.1467 113.676C92.1136 111.09 103.352 106.001 113.795 99.6227C125.386 92.5918 134.762 85.0926 134.495 70.481C134.266 57.7854 124.325 46.9843 111.735 45.6084C97.7361 44.1028 85.127 54.2364 83.5956 68.2493C83.0982 72.8116 84.5435 76.1348 85.2714 80.5141C86.0515 84.9715 85.932 89.5728 85.2913 94.07C84.3106 100.783 81.9875 107.302 79.7947 113.742ZM79.7947 113.742C79.899 113.716 80.0033 113.689 80.1206 113.676C80.1467 113.65 80.1597 113.663 80.1597 113.663" stroke="#A1FD03" stroke-miterlimit="10"/>
<path d="M94.3283 84.9285C101.963 92.5629 114.346 92.5572 121.988 84.9158C129.629 77.2744 129.635 64.8909 122 57.2565C114.366 49.622 101.982 49.6277 94.341 57.2691C86.6996 64.9105 86.6939 77.2941 94.3283 84.9285Z" fill="white" stroke="white" stroke-miterlimit="10"/>
<path d="M98.723 80.56C104.033 85.8702 112.647 85.8663 117.962 80.5512C123.277 75.236 123.281 66.6224 117.971 61.3121C112.661 56.0019 104.047 56.0058 98.7318 61.3209C93.4166 66.6361 93.4127 75.2497 98.723 80.56Z" fill="black" stroke="black" stroke-miterlimit="10"/>
<path d="M69.0376 64.1498C69.0376 64.1498 69.0507 64.1628 69.0637 64.1758C69.1158 64.2279 69.1679 64.28 69.22 64.3322C70.3691 59.8217 71.4662 55.2069 73.3842 50.9437C74.6629 48.1016 76.2934 45.4027 78.354 43.0816C80.3754 40.7996 82.3964 39.378 83.7793 36.5619C88.0717 27.8919 84.8178 17.5179 76.4906 13.4158C69.0104 9.7174 59.5461 12.459 54.7721 19.7345C49.2546 28.1182 51.7146 35.8205 55.5561 44.0175C59.0068 51.4326 63.3572 58.3911 69.0376 64.1498C69.0376 64.1498 69.0507 64.1628 69.0637 64.1758C69.1549 64.3192 69.1939 64.4364 69.1808 64.5016C69.1939 64.4364 69.207 64.3973 69.22 64.3322" fill="#A1FD03"/>
<path d="M69.0637 64.1758C69.0507 64.1628 69.0376 64.1498 69.0376 64.1498C63.3572 58.3911 59.0068 51.4326 55.5561 44.0175C51.7146 35.8205 49.2546 28.1182 54.7721 19.7345C59.5461 12.459 69.0104 9.7174 76.4906 13.4158C84.8178 17.5179 88.0717 27.8919 83.7793 36.5619C82.3964 39.378 80.3754 40.7996 78.354 43.0816C76.2934 45.4027 74.6629 48.1016 73.3842 50.9437C71.4662 55.2069 70.3691 59.8217 69.22 64.3322M69.0637 64.1758C69.1158 64.2279 69.1679 64.28 69.22 64.3322M69.0637 64.1758C69.1549 64.3192 69.1939 64.4364 69.1808 64.5016C69.1939 64.4364 69.207 64.3973 69.22 64.3322" stroke="#A1FD03" stroke-miterlimit="10"/>
<path d="M63.1625 41.4975C69.5304 44.6451 77.3589 41.8102 80.6479 35.1655C83.9368 28.5209 81.4408 20.5827 75.0729 17.4351C68.705 14.2875 60.8765 17.1224 57.5875 23.767C54.2985 30.4117 56.7945 38.3499 63.1625 41.4975Z" fill="white" stroke="white" stroke-miterlimit="10"/>
<path d="M64.9329 37.6986C69.3667 39.8902 74.8179 37.9155 77.1084 33.288C79.399 28.6605 77.6615 23.1325 73.2276 20.9409C68.7938 18.7493 63.3426 20.724 61.0521 25.3515C58.7615 29.979 60.499 35.507 64.9329 37.6986Z" fill="black" stroke="black" stroke-miterlimit="10"/>
</svg>
