<svg width="166" height="27" viewBox="0 0 166 27" fill="none" xmlns="http://www.w3.org/2000/svg">
<mask id="mask0_13_258" style="mask-type:luminance" maskUnits="userSpaceOnUse" x="0" y="0" width="166" height="27">
<path d="M166 0.40918H0V26.334H166V0.40918Z" fill="white"/>
</mask>
<g mask="url(#mask0_13_258)">
<path d="M0.366929 25.5394C0.110258 25.5394 -0.0125384 25.4001 0.000387494 25.1202C0.0114668 24.8405 0.134263 24.6309 0.366929 24.4915C0.995682 24.0954 1.39823 23.4547 1.57273 22.5692C1.74723 21.6839 1.83494 20.5768 1.83494 19.2491V7.57611C1.83494 4.64008 1.3456 2.89324 0.366929 2.33374C0.134263 2.19432 0.0114668 1.99674 -0.000535784 1.74007C-0.0125384 1.48432 0.109334 1.3329 0.366006 1.28582L6.79757 0.48164C7.4494 0.411471 7.77624 0.703228 7.77624 1.35506V18.8817C7.77624 19.0561 7.78178 19.348 7.79378 19.7551C7.80486 20.1632 7.8224 20.4891 7.84641 20.7338C7.86949 20.9784 7.90458 21.2877 7.95074 21.6598C7.99691 22.0328 8.05599 22.3476 8.12524 22.6034C8.19541 22.8601 8.28219 23.1223 8.38745 23.3901C8.49178 23.6578 8.61458 23.8794 8.75399 24.0538C8.8934 24.2284 9.05683 24.3742 9.24333 24.4905C9.47599 24.63 9.59786 24.8405 9.60987 25.1194C9.62095 25.3991 9.49908 25.5385 9.24333 25.5385L0.366929 25.5394Z" fill="black"/>
<path d="M26.9266 23.4603C25.0857 25.3123 22.8727 26.2384 20.2865 26.2384C17.7004 26.2384 15.4808 25.3067 13.6287 23.4427C11.7766 21.5785 10.8506 19.3655 10.8506 16.8024C10.8506 14.2394 11.7766 12.0032 13.6287 10.1622C15.4808 8.32212 17.7004 7.40161 20.2865 7.40161C22.8727 7.40161 25.0571 8.32212 26.9092 10.1622C28.7612 12.0032 29.6874 14.2163 29.6874 16.8024C29.6874 19.3886 28.7668 21.6081 26.9266 23.4603ZM16.6525 9.25463C15.9535 9.58148 15.5399 10.2278 15.4116 11.1944C15.2833 12.1611 15.3765 13.245 15.6914 14.4444C16.0062 15.6447 16.4779 16.9316 17.1068 18.3065C17.9921 20.1235 18.9588 21.621 20.0076 22.7972C21.0565 23.9745 22.0573 24.5617 23.0129 24.5617C23.3388 24.5617 23.6416 24.4915 23.9215 24.3521C24.6204 24.0262 25.0275 23.3799 25.1448 22.4123C25.2611 21.4456 25.1623 20.3561 24.8475 19.1448C24.5326 17.9334 24.0489 16.6519 23.3971 15.3003C22.5347 13.4833 21.5856 11.9866 20.5487 10.8094C19.5118 9.63318 18.5157 9.04505 17.5609 9.04505C17.2342 9.04505 16.9322 9.11522 16.6525 9.25463Z" fill="black"/>
<path d="M47.1621 23.4603C45.321 25.3123 43.1079 26.2384 40.5218 26.2384C37.9357 26.2384 35.7171 25.3067 33.8641 23.4427C32.0119 21.5785 31.0859 19.3655 31.0859 16.8024C31.0859 14.2394 32.0119 12.0032 33.8641 10.1622C35.7161 8.32212 37.9357 7.40161 40.5218 7.40161C43.1079 7.40161 45.2924 8.32212 47.1445 10.1622C48.9966 12.0032 49.9226 14.2163 49.9226 16.8024C49.9226 19.3886 49.0022 21.6081 47.1621 23.4603ZM36.8878 9.25371C36.1889 9.58055 35.7753 10.2268 35.6469 11.1935C35.5186 12.1602 35.6118 13.2441 35.9266 14.4434C36.2415 15.6437 36.7133 16.9308 37.3421 18.3056C38.2275 20.1226 39.1942 21.6202 40.243 22.7964C41.2919 23.9735 42.2927 24.5607 43.2482 24.5607C43.5741 24.5607 43.8771 24.4906 44.1568 24.3511C44.8556 24.0252 45.2629 23.3789 45.3801 22.4114C45.4964 21.4448 45.3976 20.3552 45.0828 19.1439C44.7679 17.9325 44.2842 16.6511 43.6324 15.2993C42.77 13.4823 41.8209 11.9857 40.7841 10.8085C39.7471 9.63225 38.751 9.04413 37.7963 9.04413C37.4695 9.04413 37.1675 9.1143 36.8878 9.25371Z" fill="black"/>
<path d="M51.0761 2.36962C50.8425 2.23021 50.7206 2.0317 50.7095 1.77596C50.6975 1.52021 50.8203 1.36879 51.0761 1.3217L57.5058 0.517529C58.1577 0.44736 58.4844 0.739115 58.4844 1.39095V12.9236C59.393 11.2229 60.4122 9.87774 61.5424 8.88705C62.6725 7.8973 64.0638 7.4015 65.7184 7.4015C67.3729 7.4015 68.3506 7.93793 68.864 9.00892C69.2831 9.89435 69.1899 10.6985 68.5843 11.4205C68.0717 12.0031 67.3488 12.2939 66.4173 12.2939C65.6953 12.2939 64.9438 11.9791 64.1636 11.3504C63.3825 10.7216 62.8295 10.4068 62.5036 10.4068C61.8508 10.4068 61.1638 10.8961 60.4418 11.8748C59.7189 12.8535 59.1362 13.8201 58.694 14.7757C59.5093 15.1026 60.9653 15.23 63.0621 15.1597C63.2717 15.1597 63.4582 15.265 63.6207 15.4746C64.1801 16.1736 64.7858 16.9657 65.4377 17.8512C68.4429 21.789 70.5397 24.002 71.728 24.4914C71.9376 24.5847 72.0714 24.713 72.1296 24.8754C72.1877 25.039 72.1758 25.1903 72.0945 25.3297C72.0123 25.4692 71.8904 25.5393 71.728 25.5393H62.8516C62.6881 25.5393 62.5662 25.4692 62.485 25.3297C62.4028 25.1903 62.3973 25.0325 62.4674 24.8579C62.5377 24.6834 62.6651 24.5606 62.8516 24.4914C62.991 24.4452 63.0962 24.3696 63.1664 24.2643C63.2366 24.159 63.2597 24.0261 63.2366 23.8626C63.2125 23.7002 63.172 23.5367 63.1137 23.3733C63.0556 23.2107 62.9569 23.0067 62.8165 22.7621C62.677 22.5174 62.5367 22.2792 62.3973 22.0456C62.2579 21.813 62.0769 21.5387 61.8553 21.2239C61.6337 20.909 61.4297 20.6293 61.2442 20.3856C61.0577 20.1409 60.8361 19.838 60.5803 19.4771C60.3237 19.1161 60.1021 18.7957 59.9164 18.516C59.4272 17.8642 58.9498 17.1883 58.4836 16.4893V18.9185C58.4836 19.093 58.4891 19.3792 58.501 19.7744C58.5122 20.1705 58.5296 20.4964 58.5537 20.753C58.5768 21.0097 58.6118 21.3181 58.659 21.6791C58.7052 22.041 58.7633 22.3493 58.8334 22.6051C58.9036 22.8619 58.9904 23.124 59.0957 23.3918C59.201 23.6595 59.3229 23.8811 59.4622 24.0555C59.6016 24.2301 59.7651 24.3759 59.9516 24.4923C60.1843 24.6317 60.307 24.8422 60.3182 25.1211C60.3292 25.4008 60.2074 25.5403 59.9516 25.5403H51.0751C50.8185 25.5403 50.6967 25.4008 50.7086 25.1211C50.7196 24.8413 50.8425 24.6317 51.0751 24.4923C51.5174 24.2126 51.8553 23.7527 52.0888 23.112C52.3215 22.4712 52.4554 21.8887 52.4906 21.3643C52.5256 20.8398 52.5431 20.1474 52.5431 19.285V7.612C52.5431 4.69999 52.0548 2.95221 51.0761 2.36962Z" fill="black"/>
<path d="M106.222 25.6343C105.965 25.6343 105.844 25.4948 105.856 25.2151C105.867 24.9354 105.989 24.7258 106.222 24.5864C107.201 23.9808 107.69 21.174 107.69 16.1642V9.20916H106.886C106.536 9.20916 106.361 9.03465 106.361 8.68474C106.361 8.33481 106.536 8.16032 106.886 8.16032H107.69C107.9 3.03519 109.926 0.472168 113.771 0.472168C115.285 0.472168 116.619 0.763925 117.772 1.34559C118.925 1.92818 119.514 2.84869 119.538 4.10619C119.561 4.8282 119.304 5.40524 118.768 5.83641C118.232 6.26758 117.603 6.48271 116.881 6.48271C116.276 6.48271 115.728 6.32575 115.239 6.01092C114.749 5.69607 114.423 5.24829 114.26 4.6657C114.19 4.43304 114.132 4.08865 114.086 3.6344C114.039 3.18015 113.992 2.8256 113.946 2.56894C113.899 2.31319 113.742 2.07405 113.474 1.85247C113.207 1.63088 112.828 1.52009 112.339 1.52009C112.105 1.52009 111.849 1.61334 111.57 1.79985C111.29 1.98635 111.051 2.2661 110.853 2.63817C110.655 3.01119 110.55 3.45435 110.538 3.96586C110.526 4.47827 110.713 5.10795 111.098 5.85304C111.482 6.59904 112.07 7.36814 112.863 8.15939H116.638C116.988 8.15939 117.162 8.33388 117.162 8.68381C117.162 9.03372 116.988 9.20823 116.638 9.20823H113.632V18.3293C113.632 18.5389 113.638 18.9064 113.65 19.4299C113.661 19.9543 113.678 20.3448 113.703 20.6006C113.725 20.8572 113.761 21.2007 113.808 21.6319C113.854 22.063 113.912 22.401 113.982 22.6457C114.052 22.8903 114.139 23.1581 114.244 23.4498C114.35 23.7416 114.472 23.9742 114.611 24.1487C114.75 24.3233 114.914 24.4691 115.1 24.5854C115.333 24.7248 115.456 24.9354 115.467 25.2141C115.478 25.494 115.356 25.6334 115.1 25.6334H106.224L106.222 25.6343Z" fill="black"/>
<path d="M128.065 26.3338C125.571 26.3338 123.37 25.4428 121.46 23.6599C119.549 21.8781 118.594 19.6473 118.594 16.9671C118.594 14.2868 119.485 11.9814 121.268 10.1875C123.05 8.39352 125.141 7.49609 127.54 7.49609C128.915 7.49609 130.155 7.75277 131.262 8.26519C132.368 8.7776 133.248 9.44791 133.901 10.2742C134.553 11.1015 135.054 11.8706 135.404 12.5806C135.754 13.2915 136.033 14.0191 136.242 14.7651C136.382 15.0919 136.353 15.3828 136.155 15.6385C135.956 15.8952 135.648 16.0226 135.229 16.0226H123.731C124.337 18.0732 125.21 19.8264 126.352 21.2825C127.493 22.7385 128.845 23.467 130.406 23.467C132.41 23.467 133.994 22.5935 135.159 20.8458C135.369 20.543 135.602 20.3915 135.858 20.3915C136.068 20.3915 136.208 20.4848 136.277 20.6713C136.348 20.8577 136.323 21.1024 136.207 21.4052C135.648 22.5935 134.623 23.7117 133.132 24.7605C131.641 25.8094 129.951 26.3338 128.065 26.3338ZM123.452 14.9755H131.525C131.292 14.3468 131.029 13.7412 130.739 13.1586C130.447 12.5769 130.075 11.9297 129.621 11.2188C129.166 10.5088 128.624 9.94278 127.996 9.52362C127.367 9.10444 126.714 8.89486 126.038 8.89486C125.13 8.89486 124.407 9.18662 123.871 9.76829C123.335 10.3509 123.067 11.12 123.067 12.0746C123.067 12.8437 123.196 13.8104 123.452 14.9755Z" fill="black"/>
<path d="M147.18 26.3338C144.687 26.3338 142.485 25.4428 140.576 23.6599C138.665 21.8781 137.709 19.6473 137.709 16.9671C137.709 14.2868 138.6 11.9814 140.383 10.1875C142.165 8.39352 144.257 7.49609 146.656 7.49609C148.031 7.49609 149.27 7.75277 150.378 8.26519C151.483 8.7776 152.363 9.44791 153.016 10.2742C153.668 11.1015 154.17 11.8706 154.52 12.5806C154.87 13.2915 155.148 14.0191 155.358 14.7651C155.498 15.0919 155.469 15.3828 155.27 15.6385C155.072 15.8952 154.763 16.0226 154.344 16.0226H142.846C143.452 18.0732 144.326 19.8264 145.467 21.2825C146.608 22.7385 147.96 23.467 149.522 23.467C151.525 23.467 153.11 22.5935 154.275 20.8458C154.484 20.543 154.718 20.3915 154.974 20.3915C155.184 20.3915 155.323 20.4848 155.393 20.6713C155.463 20.8577 155.438 21.1024 155.322 21.4052C154.763 22.5935 153.738 23.7117 152.247 24.7605C150.756 25.8094 149.067 26.3338 147.18 26.3338ZM142.568 14.9755H150.641C150.407 14.3468 150.144 13.7412 149.854 13.1586C149.562 12.5769 149.19 11.9297 148.736 11.2188C148.282 10.5088 147.74 9.94278 147.111 9.52362C146.483 9.10444 145.83 8.89486 145.153 8.89486C144.246 8.89486 143.522 9.18662 142.987 9.76829C142.45 10.3509 142.183 11.12 142.183 12.0746C142.183 12.8437 142.312 13.8104 142.568 14.9755Z" fill="black"/>
<path d="M156.755 25.6348C156.499 25.6348 156.376 25.4955 156.389 25.2156C156.4 24.9359 156.523 24.7264 156.755 24.5869C157.385 24.1909 157.787 23.5501 157.962 22.6646C158.136 21.7792 158.224 20.6722 158.224 19.3445V7.67153C158.224 4.7355 157.735 2.98865 156.755 2.42915C156.523 2.28972 156.4 2.09123 156.389 1.83455C156.378 1.5788 156.499 1.42739 156.755 1.3803L163.186 0.576123C163.838 0.505954 164.166 0.797711 164.166 1.44955V18.9781C164.166 19.1525 164.171 19.4442 164.182 19.8513C164.193 20.2596 164.211 20.5855 164.235 20.8301C164.258 21.0748 164.293 21.3841 164.34 21.7562C164.386 22.1291 164.445 22.444 164.514 22.6998C164.585 22.9564 164.671 23.2187 164.776 23.4863C164.881 23.7541 165.004 23.9758 165.142 24.1502C165.282 24.3248 165.445 24.4706 165.632 24.5869C165.865 24.7264 165.986 24.9369 165.999 25.2156C166.01 25.4955 165.888 25.6348 165.632 25.6348H156.755Z" fill="black"/>
<path d="M93.0601 13.9732C94.458 13.2964 95.4219 12.8181 95.9528 12.5356C96.4828 12.254 97.1475 11.724 97.9488 10.9457C98.7494 10.1674 99.1501 9.29397 99.1501 8.32361C99.1501 7.73732 98.9921 7.16212 98.6765 6.598C98.6091 6.50844 98.4843 6.46228 98.3044 6.46228C97.9202 6.46228 97.3404 6.63679 96.5622 6.9867C95.7838 7.33663 95.1126 7.71425 94.5494 8.11957C93.9853 8.52581 93.771 8.81848 93.9067 8.99945C94.2899 9.45093 94.4819 9.91257 94.4819 10.3862C94.4819 11.2209 94.1016 12.386 92.8838 13.1413C91.666 13.8974 89.9182 14.7145 87.6405 15.5935C87.4106 15.6895 87.1023 15.8151 86.9314 15.9546C86.6766 16.1207 86.5751 16.4227 86.695 16.6469C86.6987 16.6534 86.7015 16.6599 86.7052 16.6664L86.7061 16.6682C86.8409 16.8871 87.0043 16.8962 87.4179 16.8039C87.4789 16.7836 87.5473 16.7633 87.6137 16.7458L89.1694 16.3063C90.5903 15.9001 91.6613 15.6129 92.3834 15.444C93.1054 15.2749 93.7248 15.19 94.2437 15.19C94.2484 15.19 94.253 15.19 94.2585 15.19C94.8467 15.1937 95.3518 15.6397 95.4191 16.2242C95.4403 16.4069 95.4274 16.6017 95.3563 16.7911C95.1707 17.2831 94.6593 17.7799 94.4238 17.9709C93.8818 18.4096 93.0056 18.7327 91.8359 19.0873C90.6725 19.4389 89.2442 19.5303 87.3201 19.5442C87.188 19.5442 87.0588 19.5442 86.9287 19.5433C85.5622 19.5276 84.3332 19.3697 83.4294 18.8001C82.6788 18.3274 82.339 17.8676 82.1498 17.2314C82.085 17.0145 82.0279 16.3875 82.0352 16.1594C82.05 15.6674 82.2024 15.1872 82.4757 14.7773C82.4848 14.7625 82.5016 14.7422 82.5218 14.7183C82.6723 14.5391 82.8496 14.3849 83.0444 14.2557C83.3112 14.0784 83.7434 13.8088 84.1985 13.602C85.6416 12.9252 87.586 12.6556 90.2469 12.4747C90.9911 12.4294 91.3549 12.3722 91.8719 11.9549C92.1711 11.7139 92.6677 11.1738 92.5855 10.4185C92.532 9.92549 92.3234 9.48324 91.8959 9.12132C91.4592 8.75109 90.6235 8.55627 89.9081 8.49349C89.3929 8.44825 87.5131 8.37439 87.5131 8.37439H84.9528C83.1487 8.37439 82.0805 7.38094 82.0805 7.38094C82.0583 7.36248 82.0362 7.34309 82.0159 7.32369C81.5201 6.8639 81.4314 6.11513 81.7536 5.52053C81.8782 5.28971 82.0574 5.03305 82.2975 4.8567C82.8986 4.41445 83.1506 4.26395 84.4357 4.26395C85.2695 4.26395 86.0035 4.4163 86.635 4.72098C87.2666 5.02566 87.9765 5.47068 88.766 6.05696C89.4649 6.57585 90.0566 6.95901 90.5414 7.20737C91.0261 7.45573 91.5736 7.57944 92.1821 7.57944C92.9031 7.57944 93.5966 7.32 94.2623 6.80113C94.927 6.28224 95.4911 5.61748 95.9537 4.80499C96.4153 3.99343 96.7145 3.16986 96.8502 2.33523C96.8954 1.97515 96.9176 1.73786 96.9176 1.62522C96.9176 0.9937 96.6924 0.677938 96.2408 0.677938C95.9703 0.677938 95.6093 0.785039 95.1578 0.99924C94.7063 1.21344 94.1201 1.53566 93.3989 1.96314C93.1737 2.09887 92.9594 2.16627 92.7564 2.16627C92.5533 2.16627 92.3216 2.09887 92.063 1.96314C91.8035 1.82742 91.6401 1.74894 91.5728 1.72586C90.8507 1.31962 90.0844 0.998316 89.2728 0.761957C88.4612 0.525597 87.3672 0.406494 85.9914 0.406494C84.6159 0.406494 83.4487 0.677014 82.423 1.21806C81.3963 1.7591 80.6135 2.44786 80.0724 3.28158C79.5313 4.11623 79.2608 4.93887 79.2608 5.75135C79.2608 6.81128 79.5535 7.78718 80.1406 8.67723C80.727 9.56819 81.7417 10.2394 83.1848 10.69C84.0415 10.9383 87.9424 10.9605 89.2063 10.7574L90.0179 10.6558C90.2662 10.6336 90.4574 10.6558 90.5931 10.7232C90.7288 10.7906 90.7963 10.8811 90.7963 10.9937C90.7963 11.1295 90.7288 11.2421 90.5931 11.3317C90.4574 11.4221 90.2662 11.4674 90.0179 11.4674C87.0412 11.4674 84.7184 11.761 83.0499 12.3473C81.3807 12.9335 80.2368 13.7737 79.6162 14.8678C78.9958 15.9619 78.7309 17.3431 78.8214 19.0114C78.8214 19.6771 78.9857 20.5608 79.4344 21.4647C80.4381 23.4867 82.8662 25.6138 88.0717 25.6582C88.1261 25.6582 88.1806 25.66 88.236 25.66C92.6224 25.66 95.1329 24.0905 96.4403 22.3658C97.0394 21.5755 97.3867 20.7518 97.5455 20.0317C97.6184 19.7021 97.6516 19.3937 97.6516 19.1205C97.6599 18.9589 97.6646 18.7981 97.6646 18.6385C97.6646 17.4659 97.2583 16.2933 96.4467 15.1208C96.0858 14.5798 95.4652 14.3092 94.5864 14.3092C94.1127 14.3092 93.6501 14.3886 93.1996 14.5456C93.0186 14.5909 92.8948 14.613 92.8275 14.613C92.6244 14.613 92.5227 14.5567 92.5227 14.444C92.5227 14.2861 92.7028 14.1283 93.0639 13.9704L93.0601 13.9732Z" fill="black"/>
</g>
</svg>
