<svg width="136" height="141" viewBox="0 0 136 141" fill="none" xmlns="http://www.w3.org/2000/svg">
<path d="M83.4034 67.1069C88.8271 69.2774 89.1851 70.9759 86.1554 74.2971C85.5225 75.0018 85.067 75.8819 84.4445 76.5983C82.5991 78.7251 83 80.4246 85.1019 81.981C86.7418 83.1841 88.3816 84.3871 89.9986 85.6353C90.7863 86.2361 91.5368 87.0073 92.3702 87.5177C93.0767 87.9567 93.4369 88.125 93.4606 89.1419C93.4911 89.9306 93.3159 90.7716 92.8158 91.3424C92.2155 92.0364 91.5521 91.9525 90.8297 91.6844C89.8844 91.3312 88.8491 91.1129 87.8477 90.8384C85.6525 90.2619 83.4579 89.6626 81.2633 89.0633C76.8852 87.8536 72.5189 86.6099 68.1538 85.3205C65.7051 84.6011 65.2536 82.0668 66.9937 79.869C68.2427 78.2993 69.6179 76.8239 70.8988 75.2664C72.0683 73.8433 72.5098 72.7116 70.5299 71.3864C68.3498 69.931 66.2043 68.3964 64.103 66.8172C63.0417 66.0273 62.0129 65.2268 60.9736 64.4146C60.5011 64.0496 60.0417 63.6049 59.5464 63.285C59.1564 63.0361 58.7603 62.9926 58.5605 62.4855C58.4009 62.0707 58.4365 61.5919 58.5462 61.149C58.6808 60.5926 58.9337 60.0275 59.3633 59.6606C60.1569 58.9711 61.0663 59.4491 61.9175 59.7201C63.0235 60.0885 64.1295 60.4569 65.2355 60.8252C67.3623 61.5371 69.4885 62.2719 71.6146 63.0066C75.5373 64.3656 79.5616 65.5556 83.4034 67.1069Z" fill="#A1FD03"/>
<path d="M34.1206 111.149C36.4923 110.175 38.3756 109.362 40.2778 108.64C43.462 107.445 44.6436 108.558 44.1613 112.148C43.6894 115.749 43.2389 119.351 42.767 122.953C42.5418 124.753 42.2951 126.554 42.0485 128.354C41.8962 129.505 42.0085 132.252 40.987 132.994C40.4489 133.381 39.7247 133.159 39.13 132.916C37.3571 132.178 37.9609 129.929 37.5045 128.283C36.884 126.005 36.748 122.973 35.3003 121.773C34.209 120.879 31.3805 122.403 29.3069 122.743C26.9853 123.112 26.1251 121.675 26.2654 119.472C26.6532 113.628 27.1047 107.808 27.5673 101.977C27.6894 100.391 27.3909 95.949 29.5899 95.7257C31.056 95.5768 31.2131 97.1694 31.4592 98.2954C31.7623 99.6742 32.0655 101.053 32.3472 102.431C32.9598 105.338 33.5295 108.243 34.1206 111.149Z" fill="#A1FD03"/>
<path d="M67.8598 29.3164C67.7706 29.0258 67.7808 28.6797 67.8225 28.369C68.031 26.8156 69.1848 25.6076 70.1091 24.4518C71.1802 23.1033 72.2512 21.7547 73.3328 20.418C75.519 17.6988 77.7473 15.0269 80.0603 12.4261C83.2488 8.85317 84.8651 8.90251 86.0273 12.9466C86.1748 13.4694 86.5315 13.8933 86.7447 14.3946C87.3459 15.7361 88.1715 18.3063 88.4668 18.2324C90.2926 17.8019 92.0465 16.8618 93.736 15.8971C95.3038 15.0103 96.8211 13.9954 98.358 13.0502C99.4969 12.3496 101.081 10.9092 102.441 11.5528C102.741 11.6983 103.038 11.913 103.181 12.2395C103.334 12.5779 103.289 12.9808 103.171 13.3243C102.593 14.8691 100.794 16.2352 99.7172 17.4105C98.4278 18.8001 97.1384 20.1897 95.8602 21.568C93.2813 24.3472 90.7031 27.1034 88.1558 29.918C85.9113 32.4049 83.9912 32.3484 82.7859 29.3999C80.4468 23.6547 79.9521 23.8624 74.4968 26.9899C73.2928 27.689 72.0678 28.3644 70.8645 29.0404C70.1691 29.4281 68.6772 30.686 68.0134 29.6317C67.9293 29.5373 67.8998 29.4328 67.8598 29.3164Z" fill="#A1FD03"/>
</svg>
