<svg width="160" height="160" viewBox="0 0 160 160" fill="none" xmlns="http://www.w3.org/2000/svg">
<path d="M80 160C124.183 160 160 124.183 160 80C160 35.8172 124.183 0 80 0C35.8172 0 0 35.8172 0 80C0 124.183 35.8172 160 80 160Z" fill="#A829F9"/>
<path d="M82.3265 34.2654C75.0948 31.3799 68.2598 27.1238 60.5411 25.9696C52.8405 24.7974 43.6069 27.9714 41.2805 35.4196C38.4852 44.3465 46.799 54.1752 43.4627 62.9218C41.1182 69.0895 34.0488 71.8307 29.4861 76.5918C23.7512 82.5792 22.3806 92.2816 26.2039 99.6396C30.0271 106.998 38.7918 111.416 46.9613 110.154C55.5997 108.819 64.4906 101.984 72.1371 106.222C76.3211 108.549 78.2327 113.436 80.9739 117.367C85.8973 124.419 94.3554 128.855 102.958 128.891C107.178 128.909 111.362 127.935 115.293 126.42C118.539 125.176 121.695 123.517 124.058 120.974C130.099 114.41 129.125 104.094 126.474 95.5638C123.823 87.0517 119.856 78.4313 121.19 69.5945C122.002 64.2022 124.743 59.2969 126.132 54.0129C127.502 48.7288 127.124 42.3086 122.868 38.9002C112.372 30.4601 94.3914 39.0805 82.3265 34.2654Z" fill="white"/>
<path d="M90.7302 99.9273C102.921 99.9273 112.804 90.0445 112.804 77.8534C112.804 65.6623 102.921 55.7794 90.7302 55.7794C78.5391 55.7794 68.6562 65.6623 68.6562 77.8534C68.6562 90.0445 78.5391 99.9273 90.7302 99.9273Z" fill="#FF870A"/>
<path d="M97.1505 154.643L96.9702 154.679C95.4914 154.985 94.1568 154.751 93.1649 154.192C92.2272 153.597 91.632 152.695 91.3795 151.487C91.1271 150.279 91.3074 149.215 91.9386 148.295C92.8043 147.267 94.0306 146.582 95.5815 146.257L97.9801 145.752L99.7114 154.102L97.1505 154.643ZM96.5554 152.659L97.0964 152.551L96.1767 148.259L95.9603 148.313C94.3011 148.655 93.4174 149.611 93.5256 151.054C93.7961 152.443 95.0946 152.966 96.5554 152.659Z" fill="#FF870A"/>
<path d="M86.456 156.266C85.1576 156.356 84.1477 155.996 83.1558 155.22C82.218 154.445 81.695 153.453 81.6048 152.262C81.5147 151.072 81.8934 150.026 82.7049 149.124C83.5706 148.223 84.5084 147.736 85.8249 147.628C87.1414 147.537 88.1332 147.88 89.1251 148.656C90.0629 149.431 90.5859 150.423 90.6761 151.613C90.7662 152.803 90.3875 153.849 89.576 154.769C88.6923 155.671 87.7545 156.176 86.456 156.266ZM86.3118 154.174C87.0331 154.12 87.4479 153.867 87.8988 153.399C88.3677 152.912 88.5841 152.389 88.53 151.776C88.4939 151.162 88.2054 150.657 87.6643 150.261C87.1414 149.864 86.6905 149.684 85.9872 149.738C85.2838 149.792 84.869 150.026 84.4001 150.495C83.9313 150.964 83.7148 151.505 83.7689 152.118C83.805 152.731 84.0936 153.236 84.6346 153.633C85.1576 154.048 85.6084 154.228 86.3118 154.174Z" fill="#FF870A"/>
<path d="M80.7572 147.88L80.5949 156.392L78.521 156.356L78.6833 147.844L80.7572 147.88Z" fill="#FF870A"/>
<path d="M75.7077 150.369C75.7438 150.062 75.3831 149.719 74.9863 149.629H74.8781C74.4453 149.593 73.9584 149.864 73.9223 150.188C73.8682 150.747 74.7879 150.91 75.5093 151.216C76.6455 151.667 77.5652 152.605 77.457 153.795C77.3308 155.238 75.9782 156.302 74.283 156.14C72.732 155.995 71.65 154.859 71.5778 153.507L71.5598 153.344L73.778 153.11C73.7239 153.633 73.9043 154.03 74.4453 154.066C74.8601 154.102 75.2208 153.849 75.2568 153.489C75.3109 152.93 74.4633 152.677 73.76 152.425C72.5878 152.01 71.6319 151.09 71.7402 149.882C71.8664 148.421 73.3452 147.393 75.0404 147.537C76.5914 147.682 77.7816 148.818 77.8718 150.188L77.8898 150.351L75.6897 150.585L75.7077 150.369Z" fill="#FF870A"/>
<path d="M69.1975 155.527L65.23 150.135L64.3283 154.517L62.2183 154.084L63.9495 145.734L64.4004 145.825L68.3499 151.199L69.2516 146.834L71.3436 147.267L69.6123 155.617L69.1975 155.527Z" fill="#FF870A"/>
<path d="M56.3749 152.209C55.1486 151.776 54.3731 151.055 53.778 149.954C53.237 148.872 53.1468 147.754 53.5435 146.636C53.9403 145.518 54.6977 144.706 55.8159 144.202C56.9701 143.733 58.016 143.66 59.2424 144.093C60.4687 144.526 61.2442 145.248 61.8393 146.348C62.3803 147.43 62.4705 148.548 62.0737 149.666C61.677 150.784 60.9196 151.596 59.8195 152.101C58.6472 152.569 57.6013 152.642 56.3749 152.209ZM57.0602 150.243C57.7275 150.477 58.2144 150.423 58.8276 150.171C59.4407 149.918 59.8555 149.522 60.0539 148.945C60.2523 148.367 60.1982 147.79 59.8736 147.213C59.549 146.636 59.2063 146.293 58.539 146.059C57.8718 145.825 57.4029 145.879 56.7897 146.131C56.1765 146.366 55.7618 146.78 55.5634 147.358C55.365 147.935 55.4191 148.494 55.7437 149.089C56.0683 149.666 56.411 150.009 57.0602 150.243Z" fill="#FF870A"/>
<path d="M43.9133 146.563L51.3975 140.792L51.7943 140.991L51.632 150.441L49.6482 149.449L49.7564 144.598L45.9151 147.573L43.9133 146.563Z" fill="#FF870A"/>
<path d="M42.6329 145.716L37.7456 142.488L38.8818 140.757L41.9656 142.795L42.5968 141.821L40.2343 140.27L41.3705 138.539L43.733 140.108L44.3642 139.134L41.2803 137.096L42.4165 135.365L47.3038 138.593L42.6329 145.716Z" fill="#FF870A"/>
<path d="M35.9964 141.28L36.4292 134.481L29.7565 135.888L29.4319 135.599L35.0225 129.125L36.6095 130.495L34.5536 132.876L38.4671 132.118L38.2687 136.104L40.3246 133.723L41.9116 135.094L36.321 141.568L35.9964 141.28Z" fill="#FF870A"/>
<path d="M28.1873 134.265L24.2378 129.9L25.7707 128.494L28.2594 131.235L29.1251 130.441L27.2134 128.331L28.7464 126.925L30.658 129.071L31.5236 128.295L29.0349 125.554L30.5678 124.166L34.5173 128.53L28.1873 134.265Z" fill="#FF870A"/>
<path d="M30.2613 123.678L23.4985 128.854L22.2361 127.195L28.9989 122.019L30.2613 123.678Z" fill="#FF870A"/>
<path d="M28.4941 121.622L19.1343 122.813L18.8638 122.398L23.7511 114.319L24.9774 116.212L24.238 117.439L25.825 119.891L27.2497 119.711L28.4941 121.622ZM23.9314 120.054L23.3363 119.134L22.669 120.216L23.9314 120.054Z" fill="#FF870A"/>
<path d="M137.818 30.4056L137.944 30.5499C138.918 31.686 139.351 32.9845 139.333 34.1026C139.261 35.2027 138.756 36.1766 137.818 36.9701C136.88 37.7636 135.852 38.1243 134.752 38.0161C133.436 37.7636 132.245 37.0062 131.217 35.7979L129.63 33.9403L136.087 28.4038L137.818 30.4056ZM136.375 31.8844L136.015 31.4696L132.696 34.319L132.84 34.4994C133.941 35.7798 135.203 36.1044 136.411 35.3109C137.511 34.3912 137.349 33.0025 136.375 31.8844Z" fill="#FF870A"/>
<path d="M144.472 39.0089C145.176 40.109 145.356 41.155 145.158 42.3994C144.923 43.6077 144.31 44.5454 143.318 45.1766C142.326 45.8259 141.208 46.0062 140.018 45.7177C138.81 45.393 137.926 44.8159 137.205 43.7159C136.501 42.6158 136.321 41.5698 136.519 40.3435C136.754 39.1352 137.367 38.2154 138.359 37.5662C139.351 36.9169 140.451 36.7366 141.641 37.0071C142.867 37.3317 143.751 37.9269 144.472 39.0089ZM142.705 40.1631C142.308 39.568 141.894 39.3155 141.262 39.1352C140.613 38.9548 140.054 39.0269 139.531 39.3696C139.008 39.7123 138.72 40.1992 138.611 40.8484C138.521 41.4976 138.575 41.9846 138.972 42.5797C139.351 43.1748 139.766 43.4093 140.415 43.6077C141.064 43.788 141.623 43.7159 142.146 43.3732C142.669 43.0306 142.958 42.5436 143.048 41.8764C143.156 41.2271 143.102 40.7582 142.705 40.1631Z" fill="#FF870A"/>
<path d="M139.856 48.0613L147.376 44.1118L148.35 45.9513L140.83 49.9008L139.856 48.0613Z" fill="#FF870A"/>
<path d="M144.472 51.2897C144.184 51.416 144.058 51.8848 144.166 52.2816L144.202 52.3898C144.382 52.7866 144.851 53.0931 145.158 52.9489C145.681 52.7144 145.392 51.8488 145.284 51.0553C145.14 49.8289 145.518 48.5846 146.618 48.0977C147.953 47.5206 149.522 48.2059 150.207 49.7568C150.82 51.1815 150.352 52.6784 149.179 53.3997L149.035 53.4899L147.755 51.6684C148.241 51.452 148.494 51.1094 148.278 50.6224C148.115 50.2437 147.7 50.0454 147.376 50.1896C146.853 50.406 147.033 51.2897 147.159 52.0111C147.358 53.2374 147.015 54.5178 145.897 55.0048C144.563 55.5819 142.939 54.7884 142.254 53.2194C141.641 51.7947 142.056 50.2077 143.228 49.4683L143.372 49.3781L144.653 51.1995L144.472 51.2897Z" fill="#FF870A"/>
<path d="M152.137 54.4632L149.306 60.5408L153.598 59.2423L154.229 61.2982L146.06 63.7869L145.915 63.3361L148.747 57.2766L144.473 58.575L143.841 56.5191L152.011 54.0304L152.137 54.4632Z" fill="#FF870A"/>
<path d="M155.437 67.2865C155.654 68.567 155.401 69.5949 154.716 70.6589C154.031 71.6689 153.093 72.282 151.921 72.4804C150.748 72.6788 149.666 72.4083 148.693 71.6689C147.719 70.8934 147.142 70.0097 146.925 68.7112C146.709 67.4128 146.961 66.3848 147.629 65.3388C148.314 64.3289 149.252 63.7158 150.424 63.5354C151.596 63.337 152.678 63.6075 153.652 64.3289C154.644 65.1224 155.221 66.0061 155.437 67.2865ZM153.363 67.6292C153.237 66.9259 152.967 66.5291 152.444 66.1143C151.921 65.6995 151.38 65.5372 150.766 65.6274C150.153 65.7356 149.684 66.0602 149.342 66.6193C148.999 67.1783 148.855 67.6472 148.981 68.3506C149.089 69.0359 149.378 69.4326 149.883 69.8654C150.406 70.2983 150.947 70.4425 151.56 70.3524C152.155 70.2442 152.624 69.9195 152.985 69.3424C153.345 68.7834 153.49 68.3325 153.363 67.6292Z" fill="#FF870A"/>
<path d="M156.429 80.9373L147.791 77.1501L147.773 76.6992L156.123 72.3169L156.195 74.5351L151.903 76.7714L156.339 78.701L156.429 80.9373Z" fill="#FF870A"/>
<path d="M156.339 82.4893L155.87 88.3324L153.796 88.17L154.085 84.4911L152.931 84.4009L152.696 87.2323L150.622 87.07L150.857 84.2386L149.702 84.1484L149.414 87.8274L147.358 87.6651L147.827 81.804L156.339 82.4893Z" fill="#FF870A"/>
<path d="M155.654 90.3692L149.486 93.2908L153.94 98.4306L153.85 98.8454L145.482 97.078L145.915 95.0401L148.999 95.6894L146.438 92.6235L150.027 90.8562L146.943 90.2069L147.376 88.1691L155.744 89.9364L155.654 90.3692Z" fill="#FF870A"/>
<path d="M153.255 100.74L151.272 106.276L149.324 105.573L150.568 102.092L149.468 101.695L148.512 104.364L146.565 103.661L147.502 100.992L146.402 100.595L145.158 104.076L143.21 103.373L145.194 97.8361L153.255 100.74Z" fill="#FF870A"/>
<path d="M142.976 103.968L150.802 107.286L149.991 109.198L142.164 105.88L142.976 103.968Z" fill="#FF870A"/>
<path d="M142.038 106.474L147.556 114.121L147.322 114.554L137.89 114.139L138.954 112.155L140.397 112.209L141.785 109.63L140.956 108.458L142.038 106.474ZM142.849 111.235L142.326 112.191L143.589 112.263L142.849 111.235Z" fill="#FF870A"/>
<path d="M11.1994 52.028L11.2535 51.8477C11.7946 50.441 12.7323 49.4491 13.7423 48.9261C14.7522 48.4572 15.8523 48.4572 16.9884 48.9081C18.1426 49.3589 18.9361 50.0983 19.3509 51.1263C19.7477 52.4067 19.6395 53.8134 19.0624 55.2922L18.1607 57.5825L10.2256 54.4807L11.1994 52.028ZM13.2012 52.6051L12.9848 53.1281L17.0786 54.6971L17.1688 54.4807C17.7819 52.9117 17.4754 51.6493 16.1949 50.9459C14.8784 50.4229 13.7423 51.2165 13.2012 52.6051Z" fill="#FF870A"/>
<path d="M15.672 42.1999C16.3032 41.0637 17.1508 40.4145 18.3231 39.9997C19.4953 39.639 20.5954 39.7292 21.6414 40.3063C22.6874 40.8834 23.3727 41.767 23.6792 42.9393C23.9678 44.1476 23.8596 45.2116 23.2284 46.3477C22.5972 47.5019 21.7496 48.1512 20.5774 48.5479C19.4232 48.9086 18.305 48.8004 17.259 48.2413C16.2311 47.6642 15.5458 46.7986 15.2212 45.6083C14.9507 44.4 15.0408 43.336 15.672 42.1999ZM17.5115 43.2098C17.1689 43.841 17.1508 44.3099 17.2951 44.9591C17.4394 45.6083 17.782 46.0772 18.305 46.3658C18.8461 46.6724 19.4232 46.6904 20.0363 46.474C20.6495 46.2395 21.0462 45.969 21.3889 45.3378C21.7315 44.7247 21.7496 44.2377 21.6053 43.5885C21.461 42.9393 21.1364 42.4704 20.5954 42.1638C20.0544 41.8752 19.4953 41.8392 18.8641 42.0736C18.2329 42.3081 17.8361 42.5786 17.5115 43.2098Z" fill="#FF870A"/>
<path d="M25.8073 41.9645L18.7559 37.1494L19.9281 35.4181L26.9795 40.2332L25.8073 41.9645Z" fill="#FF870A"/>
<path d="M26.4744 36.3737C26.7269 36.5721 27.1958 36.4639 27.4843 36.1754L27.5565 36.0852C27.827 35.7425 27.863 35.1835 27.6106 34.9671C27.1597 34.6244 26.5285 35.2917 25.8793 35.7425C24.8694 36.4639 23.5889 36.6984 22.6511 35.959C21.515 35.0572 21.3707 33.344 22.4167 32.0094C23.3906 30.7831 24.9415 30.4946 26.1137 31.1979L26.258 31.2881L25.2481 33.2718C24.8333 32.9472 24.4005 32.8751 24.0759 33.3079C23.8234 33.6325 23.8414 34.0834 24.1119 34.2998C24.5447 34.6425 25.23 34.0834 25.8252 33.6325C26.8171 32.8751 28.1155 32.5685 29.0713 33.3259C30.2255 34.2277 30.2796 36.0491 29.2156 37.3837C28.2418 38.61 26.6367 38.9887 25.4465 38.3034L25.3022 38.2132L26.2941 36.2295L26.4744 36.3737Z" fill="#FF870A"/>
<path d="M25.663 28.151L32.3537 27.7542L29.1616 24.5982L30.6765 23.0653L36.736 29.0707L36.4114 29.3953L29.7387 29.7921L32.9128 32.9301L31.3979 34.4449L25.3384 28.4395L25.663 28.151Z" fill="#FF870A"/>
<path d="M35.4376 19.1514C36.4656 18.3579 37.4935 18.1054 38.7559 18.1956C39.9642 18.3218 40.9561 18.8629 41.6775 19.8006C42.3988 20.7384 42.6694 21.8205 42.489 23.0288C42.2546 24.2551 41.7496 25.1929 40.7217 25.9864C39.6757 26.7979 38.6477 27.0504 37.4033 26.9602C36.1951 26.834 35.2212 26.293 34.4818 25.3552C33.7604 24.4174 33.4899 23.3354 33.6522 22.1271C33.8867 20.8827 34.4097 19.9629 35.4376 19.1514ZM36.718 20.8106C36.159 21.2434 35.9426 21.6762 35.8163 22.3254C35.6901 22.9927 35.8163 23.5337 36.177 24.0207C36.5557 24.5076 37.0607 24.7601 37.728 24.8142C38.3952 24.8502 38.8641 24.7601 39.4232 24.3272C39.9822 23.8944 40.1806 23.4616 40.3249 22.8124C40.4692 22.1631 40.3429 21.6041 39.9642 21.1171C39.5855 20.6302 39.0805 20.3777 38.4133 20.3417C37.746 20.2876 37.2771 20.3958 36.718 20.8106Z" fill="#FF870A"/>
<path d="M47.0336 11.8115L47.773 21.2434L47.3943 21.4779L39.5854 16.1758L41.479 15.0397L45.4827 17.7809L45.0859 12.9296L47.0336 11.8115Z" fill="#FF870A"/>
<path d="M48.4224 11.1984L53.8146 8.87195L54.6442 10.7655L51.2537 12.2263L51.7046 13.2903L54.3015 12.1722L55.1311 14.0658L52.5342 15.1839L52.985 16.248L56.3755 14.7872L57.205 16.6808L51.8128 19.0072L48.4224 11.1984Z" fill="#FF870A"/>
<path d="M55.69 8.096L61.1724 12.1357L63.589 5.78762L64.0038 5.66138L66.4023 13.8489L64.4005 14.4441L63.5168 11.4323L62.038 15.1294L58.7919 12.821L59.6755 15.8327L57.6918 16.4098L55.2932 8.22224L55.69 8.096Z" fill="#FF870A"/>
<path d="M65.8975 5.35587L71.7045 4.41809L72.0291 6.474L68.3862 7.06913L68.5665 8.22332L71.3618 7.77246L71.6865 9.82837L68.8911 10.2792L69.0715 11.4334L72.7324 10.8203L73.0571 12.8581L67.2681 13.7959L65.8975 5.35587Z" fill="#FF870A"/>
<path d="M73.6884 12.8577L72.949 4.38164L75.0229 4.20129L75.7623 12.6774L73.6884 12.8577Z" fill="#FF870A"/>
<path d="M76.3032 12.497L80.4331 3.98486H80.92L85.0318 12.5151H82.7595L82.1283 11.2166H79.1887L78.5575 12.5151L76.3032 12.497ZM80.1265 9.50335H81.2266L80.6855 8.34916L80.1265 9.50335Z" fill="#FF870A"/>
<path d="M105.05 16.1227C106.743 16.1227 108.116 14.7501 108.116 13.0569C108.116 11.3637 106.743 9.99109 105.05 9.99109C103.357 9.99109 101.984 11.3637 101.984 13.0569C101.984 14.7501 103.357 16.1227 105.05 16.1227Z" fill="#FF870A"/>
<path d="M124.436 138.539C126.13 138.539 127.502 137.166 127.502 135.473C127.502 133.78 126.13 132.407 124.436 132.407C122.743 132.407 121.371 133.78 121.371 135.473C121.371 137.166 122.743 138.539 124.436 138.539Z" fill="#FF870A"/>
<path d="M11.037 92.5693C12.7302 92.5693 14.1028 91.1967 14.1028 89.5034C14.1028 87.8102 12.7302 86.4376 11.037 86.4376C9.34381 86.4376 7.97119 87.8102 7.97119 89.5034C7.97119 91.1967 9.34381 92.5693 11.037 92.5693Z" fill="#FF870A"/>
</svg>
