<svg width="169" height="57" viewBox="0 0 169 57" fill="none" xmlns="http://www.w3.org/2000/svg">
<path d="M108.821 36.2286C103.087 36.2286 100.459 33.5515 100.459 26.8941C100.459 21.6854 103.485 17.8132 109.216 17.8132C111.598 17.8117 113.978 17.9324 116.347 18.1751V35.7932C116.347 42.0888 114.314 44.2959 108.583 44.2959C103.607 44.2959 101.651 41.9391 101.651 41.9391C101.651 41.9391 102.483 40.457 103.999 39.732C103.999 39.732 105.594 41.5412 108.575 41.5412C111.961 41.5412 112.718 39.9136 112.718 35.857C112.718 35.857 111.166 36.2202 108.816 36.2202M112.718 33.0718V20.7801C111.553 20.6577 110.382 20.5975 109.211 20.5999C105.591 20.5999 104.237 23.5667 104.237 26.8941C104.237 31.2722 105.193 33.4419 108.812 33.4419C110.12 33.4283 111.425 33.3073 112.714 33.0801" fill="black"/>
<path d="M145.552 27.616C145.552 31.2885 147.572 33.4138 151.217 33.4138C154.784 33.4138 156.568 32.1883 156.568 32.1883C157.318 33.4859 157.36 35.0331 157.36 35.0331C157.36 35.0331 155.34 36.2934 151.217 36.2934C144.717 36.2934 141.907 32.8357 141.907 26.9339C141.907 20.6674 145.114 17.824 150.424 17.824C155.415 17.824 158.23 20.1268 158.35 25.7069L158.391 27.616H145.552ZM145.589 24.9819H154.667C154.864 22.2451 153.636 20.6259 150.424 20.6259C147.256 20.6259 145.589 22.3186 145.589 24.9819Z" fill="black"/>
<path d="M81.8756 33.231H70.3436V23.798H80.2937V20.7383H70.3436V12.2772H81.8756V9.21606H66.4202V36.2907H81.8756V33.231Z" fill="black"/>
<path d="M87.3878 20.9068C87.3878 20.9068 89.2358 20.7265 90.6444 20.7265C94.4653 20.7265 94.9422 22.2224 94.9422 25.4749V36.2887H98.6022V25.8409C98.6022 20.2136 97.2339 17.7625 90.6375 17.7625C86.4159 17.7625 83.718 18.317 83.718 18.317V36.2873H87.3808L87.3878 20.9068Z" fill="black"/>
<path d="M163.768 18.2181V13.2493L160.24 13.9702V36.2923H163.768V21.099H169V18.2181H163.768Z" fill="black"/>
<path d="M122.781 12.5548L133.851 36.2924H137.891H140.057V9.21777H136.394V33.0802L125.265 9.21777H121.225H119.121V36.2924H122.781V12.5548Z" fill="black"/>
<path d="M12.7547 31.812C11.2117 34.3311 10.8748 35.3237 10.8665 35.7133C10.8387 36.7836 11.6567 39.7449 15.7188 47.7748C17.815 51.934 19.95 55.7895 20.5157 56.8016C21.4265 55.6467 25.5815 50.3604 30.2204 44.2395L30.6196 43.7141L31.1742 44.0579C33.6697 45.5829 34.6623 45.9212 35.0561 45.9309C36.1291 45.9559 39.0877 45.1379 47.1176 41.0786C51.2767 38.9796 55.1323 36.846 56.1429 36.2845C55.0061 35.3861 49.7212 31.2283 43.6003 26.5951L43.0777 26.1985L43.4173 25.644C44.934 23.1485 45.264 22.1475 45.2709 21.7455C45.3014 20.6364 44.4821 17.6307 40.4283 9.62712C38.3404 5.50956 36.1984 1.65819 35.63 0.657227C34.733 1.80376 30.5531 7.13579 25.9642 13.2165L25.569 13.7377L25.0076 13.3981C22.4982 11.8731 21.4903 11.5417 21.0883 11.5306C19.9792 11.5001 16.9735 12.3209 8.97128 16.3746C4.83986 18.4667 0.999582 20.61 0 21.1757C1.13545 22.0671 6.40786 26.1972 12.5759 30.8568L13.1055 31.2547L12.7547 31.812ZM24.2326 15.5151L23.7695 16.139L23.3536 16.6935C20.6668 20.2981 18.3696 23.4743 16.5187 26.1292L15.9961 26.8793L15.3888 26.1944C13.3093 23.8791 11.7385 22.063 11.1645 21.3892L10.7583 20.9192L11.1576 20.4464C12.4622 18.909 17.0234 13.9083 21.0259 14.0095C21.6442 14.0247 22.4816 14.3783 23.5837 15.0936L24.2326 15.5151ZM42.7893 21.6859C42.7768 22.3 42.4261 23.1291 41.7259 24.2188L41.3142 24.8718L40.6889 24.4073L40.1746 24.0219C36.5575 21.3226 33.373 19.0143 30.7153 17.1635L29.9625 16.6381L30.6432 16.0253C32.9488 13.9582 34.7524 12.3971 35.4207 11.8218L35.8934 11.4197L36.3662 11.819C37.8995 13.1208 42.9044 17.682 42.8018 21.6859M31.8868 42.0768L32.2223 41.586C32.4108 41.3337 32.598 41.0827 32.7866 40.8277C35.4567 37.2508 37.7484 34.094 39.5923 31.4515L40.1067 30.7084L40.7194 31.3725C42.8087 33.6379 44.324 35.5012 44.916 36.1652L45.3028 36.62L45.0255 37.0123C43.3896 38.7911 39.4412 43.4535 35.1212 43.5519C34.4502 43.5353 33.6974 43.2441 32.5467 42.4996L31.8868 42.0768ZM27.4226 38.6108C25.5788 36.9222 23.4451 34.8163 21.0772 32.3416C20.1261 31.349 19.1251 30.2828 18.1034 29.1779L17.6542 28.6885L18.102 28.1963C19.8086 26.3261 21.9492 24.1509 24.4794 21.7358C25.3958 20.8568 26.3898 19.9224 27.4296 18.963L27.9176 18.5124L28.407 18.9547C30.2827 20.6405 32.4788 22.77 34.9438 25.2849C35.8338 26.1972 36.7793 27.1787 37.7484 28.1963L38.2101 28.6829L37.7581 29.182C36.0945 31.0315 33.9941 33.1901 31.5347 35.5982C30.5559 36.5548 29.5078 37.5641 28.4139 38.5997L27.919 39.06L27.4226 38.6108ZM13.2815 35.7757C13.2968 35.1033 13.5741 34.3463 14.331 33.1831L14.7469 32.5288L15.2308 32.856C15.497 33.0556 15.7604 33.2525 16.0266 33.4493C19.5965 36.1084 22.7422 38.3862 25.3777 40.2246L26.1167 40.7417L25.4526 41.3559C23.172 43.4632 21.3032 44.9882 20.6405 45.576L20.1816 45.9656L19.7878 45.6883C18.0535 44.1827 13.5172 40.2814 13.2718 35.7785" fill="black"/>
</svg>
