<svg width="142" height="138" viewBox="0 0 142 138" fill="none" xmlns="http://www.w3.org/2000/svg">
<path d="M118.201 18.4341L118.043 18.1521C114.659 24.2564 111.282 30.5359 106.834 35.9597C103.864 39.547 100.439 42.7921 96.4901 45.2877C92.6451 47.7437 89.0985 48.9589 85.9637 52.4858C76.3379 63.3242 77.325 79.9136 88.1699 89.5278C97.9041 98.1828 113.036 98.2775 122.863 89.6762C134.171 79.7887 133.421 67.4807 130.761 53.7969C128.414 41.4492 124.527 29.3835 118.201 18.4341Z" fill="#A1FD03" stroke="#A1FD03" stroke-miterlimit="10"/>
<path d="M124.982 65.8611C123.136 54.9093 112.753 47.5291 101.791 49.377C90.8293 51.225 83.4396 61.6012 85.2859 72.553C87.1321 83.5049 97.5151 90.885 108.477 89.0371C119.439 87.1892 126.829 76.8129 124.982 65.8611Z" fill="white" stroke="white" stroke-miterlimit="10"/>
<path d="M118.971 67.116C117.686 59.4912 110.457 54.353 102.825 55.6396C95.1933 56.9261 90.0485 64.1502 91.3339 71.7751C92.6192 79.3999 99.8481 84.5381 107.48 83.2515C115.112 81.965 120.257 74.7409 118.971 67.116Z" fill="black" stroke="black" stroke-miterlimit="10"/>
<path d="M92.0117 24.6133C92.0903 24.556 92.1689 24.4986 92.269 24.4377C92.1904 24.495 91.9722 24.5097 91.6752 24.4496C91.6323 24.4568 91.6287 24.4354 91.6287 24.4354C78.3544 18.7362 64.0691 15.9412 49.6652 14.9301C33.7121 13.7612 19.5689 14.558 9.8308 28.7885C1.36663 41.1508 3.53523 58.3347 14.699 68.2699C27.1275 79.2928 46.1818 78.1751 57.2394 65.7505C60.8383 61.7045 61.7219 57.5209 64.0176 52.8126C66.3168 47.9936 69.579 43.6516 73.2712 39.7662C78.8061 33.9827 85.4984 29.305 92.0117 24.6133C91.8936 24.5671 91.7755 24.5208 91.6537 24.4532C91.6108 24.4604 91.6072 24.439 91.6072 24.439" fill="#A1FD03"/>
<path d="M92.0117 24.6133C92.0903 24.556 92.1689 24.4986 92.269 24.4376C92.1904 24.495 91.9722 24.5097 91.6752 24.4496C91.6323 24.4568 91.6287 24.4354 91.6287 24.4354C78.3544 18.7362 64.0691 15.9412 49.6652 14.9301C33.7121 13.7612 19.5689 14.558 9.8308 28.7885C1.36663 41.1508 3.53523 58.3347 14.699 68.2699C27.1275 79.2928 46.1818 78.1751 57.2394 65.7505C60.8383 61.7045 61.7219 57.5209 64.0177 52.8126C66.3168 47.9936 69.579 43.6516 73.2712 39.7662C78.8061 33.9827 85.4984 29.305 92.0117 24.6133ZM92.0117 24.6133C91.8936 24.5671 91.7755 24.5208 91.6537 24.4532C91.6108 24.4604 91.6072 24.439 91.6072 24.439" stroke="#A1FD03" stroke-miterlimit="10"/>
<path d="M58.3299 42.3733C56.2122 29.8112 44.3026 21.346 31.7291 23.4656C19.1555 25.5852 10.6794 37.4871 12.7971 50.0491C14.9147 62.6111 26.8243 71.0764 39.3979 68.9568C51.9714 66.8371 60.4476 54.9353 58.3299 42.3733Z" fill="white" stroke="white" stroke-miterlimit="10"/>
<path d="M51.1165 43.5671C49.6435 34.8293 41.3595 28.9411 32.6138 30.4155C23.868 31.8898 17.9722 40.1684 19.4452 48.9061C20.9182 57.6439 29.2022 63.5321 37.9479 62.0578C46.6937 60.5834 52.5895 52.3048 51.1165 43.5671Z" fill="black" stroke="black" stroke-miterlimit="10"/>
<path d="M68.4314 79.6496C68.4314 79.6496 68.4278 79.6282 68.4242 79.6067C68.4097 79.521 68.3953 79.4352 68.3808 79.3495C64.1908 82.8999 59.9794 86.5862 55.2193 89.3729C52.0458 91.2307 48.632 92.7101 45.0633 93.5322C41.559 94.3434 38.6435 94.3278 35.3876 96.0893C25.3303 101.489 21.3625 113.688 26.5625 123.328C31.2242 132 42.1987 135.838 51.7652 132.109C62.8045 127.823 65.708 118.735 67.6218 108.227C69.3763 98.7375 69.9536 89.0717 68.4314 79.6496C68.4314 79.6496 68.4278 79.6282 68.4242 79.6067C68.4346 79.4066 68.4773 79.2671 68.5344 79.2134C68.4773 79.2671 68.438 79.2958 68.3808 79.3495" fill="#A1FD03"/>
<path d="M68.4242 79.6067C68.4278 79.6282 68.4314 79.6496 68.4314 79.6496C69.9536 89.0717 69.3763 98.7375 67.6218 108.227C65.708 118.735 62.8045 127.823 51.7652 132.109C42.1987 135.838 31.2242 132 26.5625 123.328C21.3625 113.688 25.3303 101.489 35.3876 96.0893C38.6435 94.3278 41.559 94.3434 45.0633 93.5322C48.632 92.7101 52.0458 91.2307 55.2193 89.3729C59.9794 86.5862 64.1908 82.8999 68.3808 79.3495M68.4242 79.6067C68.4097 79.521 68.3953 79.4352 68.3808 79.3495M68.4242 79.6067C68.4346 79.4066 68.4773 79.2671 68.5344 79.2134C68.4773 79.2671 68.438 79.2958 68.3808 79.3495" stroke="#A1FD03" stroke-miterlimit="10"/>
<path d="M58.585 105.446C54.6158 98.0643 45.1502 95.4349 37.443 99.5734C29.7358 103.712 26.7055 113.051 30.6747 120.433C34.6439 127.815 44.1095 130.445 51.8167 126.306C59.5239 122.168 62.5542 112.828 58.585 105.446Z" fill="white" stroke="white" stroke-miterlimit="10"/>
<path d="M54.2845 107.888C51.5208 102.748 44.9292 100.918 39.5617 103.8C34.1942 106.682 32.0833 113.186 34.8469 118.325C37.6106 123.465 44.2022 125.296 49.5697 122.413C54.9372 119.531 57.0481 113.028 54.2845 107.888Z" fill="black" stroke="black" stroke-miterlimit="10"/>
</svg>
