<svg width="101" height="105" viewBox="0 0 101 105" fill="none" xmlns="http://www.w3.org/2000/svg">
<path d="M85.3757 98.1953L85.6287 98.1048C81.0918 94.4865 76.4104 90.85 72.5784 86.4537C70.0479 83.5228 67.8608 80.2663 66.3605 76.6841C64.8783 73.1924 64.3722 70.1168 61.914 67.0593C54.3586 57.6696 40.6214 56.1861 31.2403 63.7485C22.7992 70.5329 20.6302 82.9258 26.3239 92.1707C32.8671 102.809 43.0615 103.894 54.6478 103.605C65.0953 103.388 75.5247 101.868 85.3757 98.1953Z" fill="#FF870A" stroke="#FF870A" stroke-miterlimit="10"/>
<path d="M45.5555 97.1998C54.7895 97.1998 62.2751 89.7073 62.2751 80.4649C62.2751 71.2225 54.7895 63.73 45.5555 63.73C36.3216 63.73 28.8359 71.2225 28.8359 80.4649C28.8359 89.7073 36.3216 97.1998 45.5555 97.1998Z" fill="white" stroke="white" stroke-miterlimit="10"/>
<path d="M45.3577 92.0986C51.7866 92.0986 56.9982 86.8822 56.9982 80.4475C56.9982 74.0128 51.7866 68.7964 45.3577 68.7964C38.9289 68.7964 33.7173 74.0128 33.7173 80.4475C33.7173 86.8822 38.9289 92.0986 45.3577 92.0986Z" fill="black" stroke="black" stroke-miterlimit="10"/>
<path d="M83.9293 75.8701C83.9654 75.9424 84.0016 76.0148 84.0377 76.1053C84.0016 76.0329 84.0197 75.852 84.11 75.6168C84.11 75.5806 84.1281 75.5806 84.1281 75.5806C90.6352 65.4854 94.901 54.1599 97.7207 42.4907C100.884 29.5731 102.185 17.8677 91.8643 7.91725C82.899 -0.730639 68.5111 -1.32767 58.8228 6.45181C48.068 15.1178 46.3509 30.8938 55.0089 41.6766C57.8286 45.1864 61.1364 46.489 64.6791 49.0218C68.3123 51.5728 71.4212 54.8474 74.0963 58.4115C78.0729 63.7486 80.983 69.8817 83.9293 75.8701C83.9835 75.7796 84.0377 75.6892 84.11 75.5987C84.11 75.5625 84.1281 75.5625 84.1281 75.5625" fill="#FF870A"/>
<path d="M83.9293 75.8701C83.9654 75.9424 84.0016 76.0148 84.0377 76.1053C84.0016 76.0329 84.0197 75.852 84.11 75.6168C84.11 75.5806 84.1281 75.5806 84.1281 75.5806C90.6352 65.4854 94.901 54.1599 97.7207 42.4907C100.884 29.5731 102.185 17.8677 91.8643 7.91725C82.899 -0.730639 68.5111 -1.32767 58.8228 6.45181C48.068 15.1178 46.3509 30.8938 55.0089 41.6766C57.8286 45.1864 61.1364 46.489 64.6791 49.0218C68.3123 51.5728 71.4212 54.8474 74.0963 58.4115C78.0729 63.7486 80.983 69.8817 83.9293 75.8701ZM83.9293 75.8701C83.9835 75.7796 84.0377 75.6892 84.11 75.5987C84.11 75.5625 84.1281 75.5625 84.1281 75.5625" stroke="#FF870A" stroke-miterlimit="10"/>
<path d="M74.024 45.8015C84.6156 45.8015 93.2019 37.2074 93.2019 26.6061C93.2019 16.0047 84.6156 7.41064 74.024 7.41064C63.4324 7.41064 54.8462 16.0047 54.8462 26.6061C54.8462 37.2074 63.4324 45.8015 74.024 45.8015Z" fill="white" stroke="white" stroke-miterlimit="10"/>
<path d="M74.0422 39.7226C81.4094 39.7226 87.3817 33.7448 87.3817 26.3708C87.3817 18.9968 81.4094 13.019 74.0422 13.019C66.6749 13.019 60.7026 18.9968 60.7026 26.3708C60.7026 33.7448 66.6749 39.7226 74.0422 39.7226Z" fill="black" stroke="black" stroke-miterlimit="10"/>
<path d="M42.0671 48.9316C42.0671 48.9316 42.0852 48.9316 42.1032 48.9316C42.1755 48.9316 42.2478 48.9316 42.3201 48.9316C39.9884 45.0056 37.5483 41.0435 35.9215 36.7558C34.837 33.8973 34.0959 30.894 33.9151 27.8546C33.7344 24.8695 34.1501 22.4813 33.156 19.5686C30.1193 10.5769 20.666 5.63787 12.0441 8.56874C4.28983 11.1921 -0.373584 19.659 1.36164 28.0174C3.34992 37.6604 10.3993 41.2968 18.75 44.3182C26.2874 47.0681 34.132 48.8773 42.0671 48.9316C42.0671 48.9316 42.0852 48.9316 42.1032 48.9316C42.2659 48.9678 42.3744 49.022 42.4105 49.0763C42.3744 49.022 42.3563 48.9858 42.3201 48.9316" fill="#FF870A"/>
<path d="M42.1032 48.9316C42.0852 48.9316 42.0671 48.9316 42.0671 48.9316C34.132 48.8773 26.2874 47.0681 18.75 44.3182C10.3993 41.2968 3.34992 37.6604 1.36164 28.0174C-0.373584 19.659 4.28983 11.1921 12.0441 8.56874C20.666 5.63787 30.1193 10.5769 33.156 19.5686C34.1501 22.4813 33.7344 24.8695 33.9151 27.8546C34.0959 30.894 34.837 33.8973 35.9215 36.7558C37.5483 41.0435 39.9884 45.0056 42.3201 48.9316M42.1032 48.9316C42.1755 48.9316 42.2478 48.9316 42.3201 48.9316M42.1032 48.9316C42.2659 48.9678 42.3744 49.022 42.4105 49.0763C42.3744 49.022 42.3563 48.9858 42.3201 48.9316" stroke="#FF870A" stroke-miterlimit="10"/>
<path d="M22.2786 37.2935C28.8793 35.0596 32.3432 27.6627 30.0155 20.772C27.6877 13.8812 20.4498 10.1061 13.8491 12.34C7.24839 14.5739 3.78447 21.9708 6.11222 28.8615C8.43996 35.7522 15.6779 39.5273 22.2786 37.2935Z" fill="white" stroke="white" stroke-miterlimit="10"/>
<path d="M20.8711 33.4304C25.467 31.8751 27.8786 26.7239 26.2575 21.925C24.6364 17.1261 19.5965 14.4967 15.0006 16.0521C10.4047 17.6075 7.99312 22.7587 9.61423 27.5576C11.2353 32.3564 16.2752 34.9858 20.8711 33.4304Z" fill="black" stroke="black" stroke-miterlimit="10"/>
</svg>
