<svg width="113" height="110" viewBox="0 0 113 110" fill="none" xmlns="http://www.w3.org/2000/svg">
<path d="M93.9304 14.6492L93.805 14.425C91.1155 19.276 88.432 24.266 84.8973 28.5762C82.537 31.4269 79.8152 34.0056 76.6774 35.9888C73.6219 37.9405 70.8036 38.9062 68.3124 41.7089C60.6631 50.3217 61.4475 63.5048 70.0656 71.1449C77.8011 78.0227 89.826 78.098 97.6347 71.2628C106.621 63.4056 106.025 53.6248 103.911 42.7508C102.046 32.9385 98.9571 23.3502 93.9304 14.6492Z" fill="#A829F9" stroke="#A829F9" stroke-miterlimit="10"/>
<path d="M99.3191 52.3382C97.8519 43.6352 89.6009 37.7704 80.8899 39.2389C72.1789 40.7074 66.3065 48.953 67.7737 57.6561C69.2408 66.3591 77.4918 72.2239 86.2029 70.7554C94.9139 69.2869 100.786 61.0412 99.3191 52.3382Z" fill="white" stroke="white" stroke-miterlimit="10"/>
<path d="M94.5424 53.3348C93.5209 47.2756 87.7764 43.1924 81.7117 44.2148C75.6469 45.2372 71.5585 50.978 72.5799 57.0372C73.6014 63.0964 79.3459 67.1795 85.4106 66.1571C91.4754 65.1347 95.5638 59.394 94.5424 53.3348Z" fill="black" stroke="black" stroke-miterlimit="10"/>
<path d="M73.1185 19.5596C73.181 19.514 73.2434 19.4684 73.323 19.42C73.2605 19.4656 73.0871 19.4773 72.8511 19.4295C72.817 19.4352 72.8141 19.4182 72.8141 19.4182C62.2655 14.8892 50.9134 12.6682 39.4672 11.8646C26.7898 10.9358 15.5506 11.569 7.81213 22.8775C1.08594 32.7013 2.80926 46.3568 11.6808 54.252C21.5572 63.0115 36.699 62.1233 45.4861 52.2499C48.3461 49.0347 49.0482 45.7101 50.8726 41.9686C52.6996 38.1391 55.292 34.6886 58.2261 31.601C62.6245 27.0051 67.9426 23.2879 73.1185 19.5596C73.0246 19.5228 72.9308 19.4861 72.834 19.4323C72.7999 19.4381 72.797 19.421 72.797 19.421" fill="#A829F9"/>
<path d="M73.1185 19.5596C73.181 19.514 73.2434 19.4684 73.323 19.42C73.2605 19.4656 73.0871 19.4773 72.8511 19.4295C72.817 19.4352 72.8141 19.4182 72.8141 19.4182C62.2655 14.8892 50.9134 12.6682 39.4672 11.8646C26.7898 10.9358 15.5506 11.569 7.81213 22.8775C1.08594 32.7013 2.80926 46.3568 11.6808 54.252C21.5572 63.0115 36.699 62.1233 45.4861 52.2499C48.3461 49.0346 49.0482 45.7101 50.8726 41.9686C52.6996 38.1391 55.292 34.6886 58.2261 31.601C62.6245 27.0051 67.9426 23.2879 73.1185 19.5596ZM73.1185 19.5596C73.0246 19.5228 72.9308 19.4861 72.834 19.4323C72.7999 19.4381 72.797 19.421 72.797 19.421" stroke="#A829F9" stroke-miterlimit="10"/>
<path d="M46.3526 33.6728C44.6698 23.6902 35.2056 16.9631 25.2139 18.6475C15.2221 20.3319 8.48639 29.7899 10.1692 39.7725C11.8521 49.7551 21.3162 56.4822 31.308 54.7978C41.2998 53.1134 48.0355 43.6554 46.3526 33.6728Z" fill="white" stroke="white" stroke-miterlimit="10"/>
<path d="M40.6204 34.6215C39.4499 27.6778 32.8669 22.9987 25.9169 24.1703C18.9669 25.3419 14.2818 31.9206 15.4523 38.8642C16.6229 45.8079 23.2058 50.487 30.1558 49.3154C37.1058 48.1438 41.791 41.5651 40.6204 34.6215Z" fill="black" stroke="black" stroke-miterlimit="10"/>
<path d="M54.3801 63.2938C54.3801 63.2938 54.3772 63.2767 54.3744 63.2597C54.3629 63.1916 54.3514 63.1234 54.3399 63.0553C51.0102 65.8767 47.6636 68.8061 43.8809 71.0205C41.359 72.4969 38.6462 73.6725 35.8103 74.3258C33.0255 74.9705 30.7086 74.9581 28.1213 76.3578C20.1291 80.6485 16.9761 90.343 21.1083 98.0035C24.8128 104.895 33.5339 107.945 41.136 104.982C49.9086 101.576 52.2159 94.3538 53.7367 86.0031C55.131 78.4622 55.5897 70.7812 54.3801 63.2938C54.3801 63.2938 54.3772 63.2767 54.3744 63.2597C54.3826 63.1006 54.4166 62.9898 54.462 62.9471C54.4166 62.9898 54.3853 63.0126 54.3399 63.0553" fill="#A829F9"/>
<path d="M54.3744 63.2597C54.3772 63.2767 54.3801 63.2938 54.3801 63.2938C55.5897 70.7812 55.131 78.4622 53.7367 86.0031C52.2159 94.3538 49.9086 101.576 41.136 104.982C33.5339 107.945 24.8128 104.895 21.1083 98.0035C16.9761 90.343 20.1291 80.6485 28.1213 76.3578C30.7086 74.9581 33.0255 74.9705 35.8103 74.3258C38.6462 73.6725 41.359 72.4969 43.8809 71.0205C47.6636 68.8061 51.0102 65.8767 54.3399 63.0553M54.3744 63.2597C54.3629 63.1916 54.3514 63.1234 54.3399 63.0553M54.3744 63.2597C54.3826 63.1006 54.4166 62.9898 54.462 62.9471C54.4166 62.9898 54.3853 63.0126 54.3399 63.0553" stroke="#A829F9" stroke-miterlimit="10"/>
<path d="M46.5554 83.7936C43.4012 77.9274 35.8792 75.8379 29.7546 79.1266C23.6299 82.4154 21.2218 89.8369 24.376 95.7032C27.5302 101.569 35.0522 103.659 41.1768 100.37C47.3015 97.0814 49.7096 89.6599 46.5554 83.7936Z" fill="white" stroke="white" stroke-miterlimit="10"/>
<path d="M43.138 85.7338C40.9419 81.6492 35.7037 80.1948 31.4383 82.4852C27.1729 84.7755 25.4955 89.9434 27.6917 94.0279C29.8879 98.1124 35.126 99.5669 39.3914 97.2765C43.6568 94.9861 45.3342 89.8183 43.138 85.7338Z" fill="black" stroke="black" stroke-miterlimit="10"/>
</svg>
