<svg width="119" height="116" viewBox="0 0 119 116" fill="none" xmlns="http://www.w3.org/2000/svg">
<path d="M92.4775 14.71L92.3327 14.5007C90.1352 19.5368 87.9567 24.7096 84.8749 29.2916C82.8145 32.3243 80.3721 35.1226 77.4636 37.3726C74.6333 39.5838 71.9444 40.8004 69.7505 43.798C63.0144 53.0092 65.0241 65.9366 74.2394 72.6631C82.513 78.7206 94.3789 77.6673 101.439 70.1944C109.565 61.6031 108.059 52.0133 104.955 41.4877C102.196 31.9858 98.2505 22.8196 92.4775 14.71Z" fill="#3FF5D2" stroke="#3FF5D2" stroke-miterlimit="10"/>
<path d="M101.326 51.373C99.0626 42.9277 90.3756 37.9176 81.9226 40.1826C73.4696 42.4475 68.4515 51.1299 70.7145 59.5752C72.9774 68.0205 81.6643 73.0306 90.1173 70.7656C98.5703 68.5006 103.588 59.8182 101.326 51.373Z" fill="white" stroke="white" stroke-miterlimit="10"/>
<path d="M96.7082 52.8039C95.1327 46.9242 89.0847 43.4361 83.1996 45.013C77.3144 46.5899 73.8208 52.6347 75.3962 58.5144C76.9717 64.3942 83.0197 67.8823 88.9048 66.3054C94.79 64.7285 98.2836 58.6837 96.7082 52.8039Z" fill="black" stroke="black" stroke-miterlimit="10"/>
<path d="M72.4135 21.5044C72.4708 21.4536 72.5281 21.4028 72.602 21.3476C72.5447 21.3984 72.3748 21.4262 72.1375 21.4012C72.1044 21.41 72.1 21.3935 72.1 21.3935C61.2724 17.9162 49.8689 16.7902 38.5054 17.071C25.916 17.3436 14.8915 19.0219 8.32016 30.8998C2.60799 41.2187 5.58789 54.5239 15.0771 61.4783C25.6385 69.1907 40.4879 66.8951 48.2278 56.3341C50.7469 52.8951 51.1276 49.5507 52.5759 45.6898C54.0186 41.7419 56.2517 38.096 58.8558 34.7759C62.7625 29.8311 67.6586 25.6665 72.4135 21.5044C72.3174 21.477 72.2214 21.4496 72.121 21.4056C72.0879 21.4145 72.0834 21.3979 72.0834 21.3979" fill="#3FF5D2"/>
<path d="M72.4135 21.5044C72.4708 21.4536 72.5281 21.4028 72.602 21.3476C72.5447 21.3984 72.3748 21.4262 72.1375 21.4012C72.1044 21.41 72.1 21.3935 72.1 21.3935C61.2724 17.9162 49.8689 16.7902 38.5054 17.071C25.916 17.3436 14.8915 19.0219 8.32016 30.8998C2.60799 41.2187 5.58789 54.5239 15.0771 61.4783C25.6385 69.1907 40.4879 66.8951 48.2278 56.3341C50.7469 52.8951 51.1276 49.5507 52.5759 45.6898C54.0186 41.7419 56.2517 38.096 58.8558 34.7759C62.7625 29.8311 67.6586 25.6665 72.4135 21.5044ZM72.4135 21.5044C72.3174 21.477 72.2214 21.4496 72.121 21.4056C72.0879 21.4145 72.0834 21.3979 72.0834 21.3979" stroke="#3FF5D2" stroke-miterlimit="10"/>
<path d="M47.3406 37.9324C44.745 28.2455 34.7808 22.4988 25.085 25.0967C15.3891 27.6947 9.63327 37.6536 12.2289 47.3406C14.8245 57.0275 24.7887 62.7743 34.4845 60.1763C44.1803 57.5783 49.9362 47.6194 47.3406 37.9324Z" fill="white" stroke="white" stroke-miterlimit="10"/>
<path d="M41.7765 39.4052C39.9711 32.6673 33.0403 28.67 26.2962 30.4771C19.552 32.2842 15.5484 39.2113 17.3539 45.9493C19.1593 52.6872 26.0901 56.6845 32.8342 54.8774C39.5783 53.0703 43.5819 46.1432 41.7765 39.4052Z" fill="black" stroke="black" stroke-miterlimit="10"/>
<path d="M58.0346 66.3929C58.0346 66.3929 58.0302 66.3763 58.0257 66.3598C58.008 66.2937 57.9903 66.2276 57.9726 66.1614C54.9534 69.2561 51.9277 72.4588 48.4048 74.9974C46.0563 76.6898 43.4912 78.1035 40.7556 79.0137C38.0698 79.9106 35.7837 80.1156 33.3634 81.7386C25.8839 86.7194 23.6834 96.5757 28.4768 103.743C32.7764 110.192 41.663 112.382 48.8822 108.747C57.2142 104.565 58.8126 97.2268 59.5294 88.8489C60.1973 81.2814 59.9295 73.6634 58.0346 66.3929C58.0346 66.3929 58.0302 66.3763 58.0257 66.3598C58.019 66.2022 58.042 66.0897 58.0828 66.0433C58.042 66.0897 58.0134 66.1151 57.9726 66.1614" fill="#3FF5D2"/>
<path d="M58.0257 66.3598C58.0302 66.3763 58.0346 66.3929 58.0346 66.3929C59.9295 73.6634 60.1973 81.2814 59.5294 88.8489C58.8126 97.2268 57.2142 104.565 48.8822 108.747C41.663 112.382 32.7764 110.192 28.4768 103.743C23.6834 96.5757 25.8839 86.7194 33.3634 81.7386C35.7837 80.1156 38.0698 79.9106 40.7556 79.0137C43.4912 78.1035 46.0563 76.6898 48.4048 74.9974C51.9277 72.4588 54.9534 69.2561 57.9726 66.1614M58.0257 66.3598C58.008 66.2937 57.9903 66.2276 57.9726 66.1614M58.0257 66.3598C58.019 66.2022 58.042 66.0897 58.0828 66.0433C58.042 66.0897 58.0134 66.1151 57.9726 66.1614" stroke="#3FF5D2" stroke-miterlimit="10"/>
<path d="M52.2402 87.3427C48.5795 81.8532 40.9655 80.4979 35.2338 84.3155C29.5021 88.133 27.8232 95.6779 31.4838 101.167C35.1445 106.657 42.7585 108.012 48.4902 104.195C54.2219 100.377 55.9008 92.8322 52.2402 87.3427Z" fill="white" stroke="white" stroke-miterlimit="10"/>
<path d="M49.0518 89.5769C46.503 85.7547 41.2009 84.8115 37.2091 87.4702C33.2174 90.1289 32.0477 95.3826 34.5965 99.2048C37.1453 103.027 42.4475 103.97 46.4392 101.312C50.4309 98.6529 51.6006 93.3991 49.0518 89.5769Z" fill="black" stroke="black" stroke-miterlimit="10"/>
</svg>
