<svg width="170" height="35" viewBox="0 0 170 35" fill="none" xmlns="http://www.w3.org/2000/svg">
<path d="M31.9578 9.65274L28.562 6.25694L25.8086 9.01135L24.9135 9.90645L27.9834 12.9763C28.4931 13.4869 28.8488 14.1307 29.0098 14.834C29.2071 15.6911 29.3141 16.5825 29.3141 17.4998C29.3141 24.2028 23.8333 29.6262 17.1087 29.5317C10.6272 29.4421 5.33781 24.1516 5.24761 17.6707C5.15478 10.9466 10.5776 5.46627 17.2806 5.46627V0.418457C7.86014 0.436918 0.228809 8.07879 0.231446 17.504C0.234083 26.9488 7.87016 34.5827 17.3149 34.5822C26.7491 34.5822 34.3968 26.934 34.3968 17.4998C34.3968 15.6547 34.0961 13.8825 33.5407 12.2025C33.2192 11.2407 32.6771 10.3675 31.9578 9.65274Z" fill="black"/>
<path d="M13.4971 13.7563L9.67981 17.573L17.2473 25.1405L24.8808 17.5081L21.0978 13.7241L17.2805 17.5403L13.4971 13.7563Z" fill="black"/>
<path d="M21.1295 6.12354L17.3143 9.94025L21.0978 13.7243L24.9135 9.90702L21.1295 6.12354Z" fill="black"/>
<path d="M58.4823 12.2212H61.4308V13.8796C61.8902 12.9855 62.5184 12.5503 62.7362 12.429C63.1957 12.1395 63.7759 11.9701 64.4763 11.9701C64.9843 11.9701 65.3952 12.0915 65.7333 12.2117L65.3466 14.8807C64.96 14.6143 64.5734 14.4935 63.9689 14.4935C63.413 14.4935 62.5912 14.6148 62.011 15.3396C61.455 16.0406 61.4308 16.9346 61.4308 17.6604V22.6871H58.4823V12.2212ZM69.2852 12.2217V18.1436C69.2852 18.6995 69.3343 19.449 69.9139 19.9802C70.2768 20.2945 70.8565 20.5124 71.4125 20.5124C71.9684 20.5124 72.5486 20.2945 72.911 19.9802C73.4912 19.449 73.5397 18.6995 73.5397 18.1436V12.2217H76.4882V18.6272C76.4882 19.5698 76.3675 20.8268 75.2076 21.8421C74.2407 22.6876 72.6937 23.0263 71.4125 23.0263C70.1318 23.0263 68.5847 22.6876 67.6179 21.8421C66.4575 20.8268 66.3367 19.5698 66.3367 18.6272V12.2217H69.2852ZM81.4126 15.1945C80.7602 15.7505 80.4215 16.4762 80.4215 17.4426C80.4215 18.4094 80.8082 19.2069 81.3884 19.7143C81.775 20.053 82.4037 20.4159 83.322 20.4159C84.2889 20.4159 84.9176 20.0287 85.3042 19.6663C85.933 19.0861 86.2226 18.2158 86.2226 17.4426C86.2226 16.6693 85.9082 15.799 85.3285 15.243C84.7963 14.7599 84.023 14.494 83.322 14.494C82.5488 14.494 81.9443 14.7114 81.4126 15.1945ZM80.7116 28.2228H77.7626V12.2217H80.7116V13.5752C81.1711 12.9227 82.1859 11.8831 84.1196 11.8831C85.0384 11.8831 86.5127 12.1009 87.6973 13.2851C88.4706 14.0589 89.2687 15.3638 89.2687 17.4426C89.2687 19.8109 88.229 21.0926 87.6246 21.6728C86.827 22.4218 85.6181 23.0263 84.0716 23.0263C83.3463 23.0263 81.872 22.905 80.7116 21.3342V28.2228ZM98.8632 17.4668C98.8632 15.8233 97.6062 14.494 95.9141 14.494C94.222 14.494 92.9656 15.8233 92.9656 17.4668C92.9656 19.0619 94.1978 20.4153 95.9141 20.4153C97.63 20.4153 98.8632 19.0619 98.8632 17.4668ZM100.144 13.3579C101.184 14.3005 101.909 15.7505 101.909 17.4668C101.909 19.1589 101.184 20.6089 100.144 21.5515C99.2498 22.3738 97.8958 23.0263 95.9141 23.0263C93.9325 23.0263 92.5785 22.3738 91.6844 21.5515C90.6448 20.6089 89.9195 19.1589 89.9195 17.4668C89.9195 15.7505 90.6448 14.3005 91.6844 13.3579C92.5785 12.5361 93.9325 11.8831 95.9141 11.8831C97.8958 11.8831 99.2498 12.5361 100.144 13.3579ZM49.709 15.2019C49.2258 15.6371 48.7664 16.3381 48.7664 17.4257C48.7664 18.3435 49.105 19.0207 49.5402 19.4801C50.1684 20.1569 50.9664 20.3985 51.6669 20.3985C52.3922 20.3985 53.1174 20.1326 53.6248 19.6737C54.2293 19.1173 54.568 18.2712 54.568 17.4257C54.568 16.4341 54.1328 15.7578 53.7214 15.3227C53.1417 14.7182 52.465 14.4766 51.6669 14.4766C50.7243 14.4766 50.0719 14.8638 49.709 15.2019ZM57.1778 12.2043V22.1876C57.1778 23.7832 57.0328 25.451 55.7278 26.756C55.0026 27.4812 53.7462 28.2302 51.5946 28.2302C49.5639 28.2302 48.3555 27.6263 47.6788 27.0218C46.857 26.3208 46.2282 25.0881 45.9867 23.904H49.1773C49.2981 24.3871 49.5639 24.8708 49.9025 25.1609C50.4828 25.6926 51.2803 25.7169 51.6912 25.7169C52.5372 25.7169 53.0932 25.4268 53.4798 25.0639C54.1571 24.4114 54.2293 23.5896 54.2293 22.7436V21.2688C53.214 22.8158 51.812 23.0094 51.0144 23.0094C49.6124 23.0094 48.404 22.5742 47.3887 21.5837C46.6154 20.8099 45.7208 19.4564 45.7208 17.4262C45.7208 15.7821 46.3253 14.2593 47.3407 13.2688C48.259 12.3742 49.5402 11.8662 50.9422 11.8662C52.9001 11.8662 54.2293 13.2682 54.2293 13.2682C55.4298 11.5761 57.1778 12.2049 57.1778 12.2049V12.2043ZM111.107 15.2188C110.623 15.6539 110.165 16.3549 110.165 17.4426C110.165 18.3609 110.503 19.0381 110.938 19.497C111.566 20.1738 112.364 20.4153 113.065 20.4153C113.79 20.4153 114.516 20.1495 115.023 19.6906C115.627 19.1341 115.966 18.2886 115.966 17.4426C115.966 16.4515 115.53 15.7747 115.12 15.3396C114.539 14.7356 113.863 14.494 113.065 14.494C112.122 14.494 111.47 14.8807 111.107 15.2188ZM118.576 12.2217V22.2045C118.576 23.7995 118.431 25.4674 117.126 26.7723C116.4 27.4976 115.143 28.2471 112.992 28.2471C110.962 28.2471 109.754 27.6426 109.077 27.0387C108.255 26.3372 107.626 25.105 107.385 23.9203H110.575C110.696 24.404 110.962 24.8872 111.301 25.1773C111.88 25.709 112.678 25.7332 113.089 25.7332C113.935 25.7332 114.491 25.4431 114.878 25.0807C115.554 24.4277 115.627 23.606 115.627 22.7599V21.2857C114.612 22.8327 113.21 23.0263 112.412 23.0263C111.011 23.0263 109.802 22.5911 108.787 21.6C108.013 20.8262 107.119 19.4728 107.119 17.4426C107.119 15.799 107.724 14.2762 108.738 13.2851C109.657 12.3911 110.938 11.8831 112.34 11.8831C114.298 11.8831 115.627 13.2851 115.627 13.2851C116.827 11.593 118.576 12.2217 118.576 12.2217ZM127.616 16.0654C127.374 14.6391 126.214 13.9624 125.126 13.9624C124.038 13.9624 122.902 14.6628 122.661 16.0654H127.616ZM130.323 19.7629C130.008 20.5367 128.824 23.0263 125.174 23.0263C123.482 23.0263 122.201 22.5426 121.162 21.5515C120.002 20.4639 119.518 19.1104 119.518 17.4668C119.518 15.3886 120.364 14.1069 121.114 13.3579C122.346 12.1495 123.796 11.8831 125.053 11.8831C127.181 11.8831 128.413 12.7297 129.138 13.5995C130.25 14.9287 130.395 16.5722 130.395 17.7084V17.95H122.564C122.564 18.5787 122.733 19.2555 123.072 19.7149C123.385 20.15 124.038 20.706 125.174 20.706C126.286 20.706 127.132 20.1738 127.616 19.3282L130.323 19.7629ZM136.968 14.7114C136.267 14.0589 135.566 14.0104 135.252 14.0104C134.551 14.0104 134.116 14.349 134.116 14.8564C134.116 15.1223 134.236 15.5331 135.058 15.799L135.759 16.0168C136.581 16.2827 137.814 16.693 138.418 17.5148C138.732 17.95 138.95 18.5787 138.95 19.2554C138.95 20.198 138.635 21.1406 137.79 21.9139C136.944 22.6876 135.928 23.0263 134.647 23.0263C132.472 23.0263 131.239 21.9867 130.587 21.2857L132.133 19.497C132.714 20.1738 133.584 20.706 134.454 20.706C135.276 20.706 135.905 20.2946 135.905 19.5698C135.905 18.9173 135.373 18.651 134.986 18.5065L134.309 18.2643C133.56 17.9985 132.69 17.6604 132.061 17.0079C131.577 16.5 131.264 15.8475 131.264 15.0015C131.264 13.9861 131.747 13.1406 132.351 12.6332C133.173 11.9802 134.236 11.8831 135.082 11.8831C135.856 11.8831 137.088 11.9802 138.418 12.9955L136.968 14.7114ZM143.533 14.7351V22.6876H140.585V14.7346H139.425V12.2207H140.585V8.64396H143.533V12.2207H145.564V14.7346L143.533 14.7351ZM151.51 20.4153C149.818 20.4153 148.609 19.1104 148.609 17.4426C148.609 15.7747 149.818 14.494 151.51 14.494C153.202 14.494 154.41 15.7747 154.41 17.4426C154.41 19.1104 153.202 20.4153 151.51 20.4153ZM154.12 12.2217V13.5752C153.129 12.0287 151.558 11.8831 150.761 11.8831C147.667 11.8831 145.564 14.349 145.564 17.4426C145.564 20.5124 147.69 23.0263 150.905 23.0263C151.655 23.0263 153.057 22.8575 154.12 21.3342V22.6876H157.069V12.2217H154.12ZM166.954 17.4668C166.954 15.8233 165.697 14.494 164.005 14.494C162.313 14.494 161.057 15.8233 161.057 17.4668C161.057 19.0619 162.289 20.4153 164.005 20.4153C165.722 20.4153 166.954 19.0619 166.954 17.4668ZM168.235 13.3579C169.275 14.3005 170 15.7505 170 17.4668C170 19.1589 169.275 20.6089 168.235 21.5515C167.341 22.3738 165.988 23.0263 164.005 23.0263C162.023 23.0263 160.67 22.3738 159.775 21.5515C158.737 20.6089 158.011 19.1589 158.011 17.4668C158.011 15.7505 158.737 14.3005 159.775 13.3579C160.67 12.5361 162.023 11.8831 164.005 11.8831C165.988 11.8831 167.341 12.5361 168.235 13.3579ZM154.859 8.01575C154.859 8.01575 154.727 8.34964 154.448 8.62023C154.276 8.78638 154.037 8.9578 153.699 8.9578C153.481 8.9578 153.167 8.91033 152.587 8.66823L151.619 8.27527C151.184 8.10648 150.821 7.96143 150.145 7.96143C147.935 7.96143 147.329 10.1646 149.033 11.0313C149.033 11.0313 149.165 10.6968 149.444 10.4268C149.616 10.2601 149.855 10.0882 150.193 10.0882C150.411 10.0882 150.725 10.1367 151.305 10.3783L152.272 10.7712C152.708 10.9405 153.07 11.0856 153.747 11.0856C155.957 11.0856 156.563 8.88238 154.859 8.01575Z" fill="black"/>
</svg>
