<svg width="352" height="325" viewBox="0 0 352 325" fill="none" xmlns="http://www.w3.org/2000/svg">
<path d="M162.226 324.828C72.7765 324.828 0 251.959 0 162.409C0 72.8587 72.7765 0 162.226 0C251.685 0 324.451 72.8587 324.451 162.409C324.451 251.959 251.675 324.828 162.226 324.828ZM162.226 92.8159C123.9 92.8159 92.7003 124.039 92.7003 162.42C92.7003 200.789 123.9 232.023 162.226 232.023C200.562 232.023 231.751 200.789 231.751 162.42C231.751 124.029 200.562 92.8159 162.226 92.8159Z" fill="white"/>
<path d="M221.855 72.9794C221.855 77.9112 214.783 83.5663 215.834 88.1802C216.917 92.9367 225.763 94.9751 227.832 99.2603C229.934 103.633 226.025 111.82 229.025 115.579C232.024 119.349 240.881 117.343 244.646 120.346C248.39 123.338 248.39 132.435 252.758 134.539C257.05 136.61 264.143 130.966 268.905 132.051C273.514 133.092 277.455 141.29 282.381 141.29C287.307 141.29 291.248 133.092 295.846 132.051C300.608 130.977 307.691 136.61 311.993 134.539C316.361 132.435 316.361 123.338 320.116 120.346C323.871 117.332 332.738 119.338 335.738 115.579C338.737 111.82 334.818 103.644 336.909 99.2603C338.989 94.9751 347.845 92.9367 348.918 88.1802C349.969 83.5663 342.897 77.9112 342.897 72.9794C342.897 68.0477 349.969 62.3926 348.918 57.7786C347.845 53.0112 338.978 50.9947 336.909 46.6876C334.807 42.3257 338.726 34.139 335.738 30.3909C332.716 26.6098 323.871 28.6264 320.105 25.6125C316.361 22.6206 316.361 13.5242 311.993 11.42C307.702 9.34865 300.608 14.9928 295.846 13.9078C291.248 12.8666 287.297 4.66895 282.381 4.66895C277.455 4.66895 273.514 12.8666 268.905 13.9078C264.143 14.9928 257.061 9.34865 252.758 11.42C248.39 13.5242 248.39 22.6206 244.646 25.6125C240.881 28.6264 232.024 26.6208 229.025 30.3909C226.025 34.139 229.944 42.3257 227.832 46.6876C225.763 50.9947 216.917 53.0112 215.834 57.7786C214.772 62.3926 221.855 68.0477 221.855 72.9794Z" fill="#A829F9" stroke="white" stroke-width="4" stroke-miterlimit="10"/>
</svg>
