<svg width="141" height="134" viewBox="0 0 141 134" fill="none" xmlns="http://www.w3.org/2000/svg">
<path d="M54.3289 68.3144C49.2041 65.5102 49.052 63.781 52.4576 60.8465C53.1703 60.2226 53.7279 59.4033 54.4317 58.7666C56.5185 56.8761 56.3239 55.1408 54.4234 53.3439C52.9394 51.9532 51.4554 50.5625 49.9995 49.1297C49.2894 48.4389 48.6366 47.5834 47.8704 46.9769C47.2214 46.4564 46.884 46.2463 46.9822 45.2338C47.0464 44.4471 47.321 43.6332 47.8858 43.1264C48.565 42.5092 49.2135 42.672 49.8986 43.0246C50.7948 43.4884 51.7965 43.8291 52.7578 44.2216C54.8683 45.0567 56.9753 45.9144 59.0824 46.7721C63.2841 48.4973 67.4702 50.2549 71.6494 52.0576C73.9945 53.065 74.1393 55.6351 72.1486 57.6088C70.7206 59.0176 69.1787 60.3178 67.7205 61.7108C66.389 62.9836 65.8152 64.0543 67.6222 65.607C69.6123 67.313 71.5587 69.0934 73.4558 70.9128C74.4149 71.8241 75.3405 72.742 76.275 73.6728C76.7004 74.0918 77.1033 74.5882 77.5567 74.9651C77.9141 75.2589 78.3022 75.3495 78.4398 75.8769C78.5486 76.3079 78.4559 76.779 78.294 77.2055C78.0938 77.7418 77.7751 78.2726 77.3046 78.5854C76.4342 79.1749 75.5885 78.5915 74.7759 78.2205C73.722 77.7224 72.668 77.2242 71.6141 76.7261C69.5878 75.7647 67.5649 74.7807 65.542 73.7967C61.8103 71.9778 57.9574 70.3145 54.3289 68.3144Z" fill="#FF870A"/>
<path d="M108.53 30.49C106.059 31.1728 104.092 31.7552 102.117 32.244C98.8125 33.0492 97.7728 31.8023 98.6814 28.2962C99.5811 24.7772 100.459 21.2551 101.359 17.7361C101.798 15.9751 102.259 14.2172 102.719 12.4592C103.008 11.3347 103.226 8.59483 104.329 7.98026C104.909 7.65986 105.602 7.96754 106.163 8.27943C107.835 9.22485 106.966 11.3858 107.222 13.0739C107.565 15.4096 107.337 18.4366 108.631 19.8009C109.607 20.8192 112.598 19.6455 114.697 19.5557C117.046 19.4672 117.728 20.9973 117.325 23.1677C116.241 28.9231 115.096 34.6467 113.938 40.3801C113.627 41.9402 113.392 46.3864 111.182 46.3448C109.708 46.3171 109.743 44.7171 109.634 43.5698C109.498 42.1646 109.362 40.7594 109.247 39.3573C108.987 36.3984 108.769 33.4458 108.53 30.49Z" fill="#FF870A"/>
<path d="M65.2362 107.694C65.29 107.994 65.2384 108.336 65.1598 108.639C64.7668 110.157 63.4767 111.218 62.4207 112.255C61.1959 113.465 59.971 114.676 58.7372 115.874C56.2412 118.311 53.709 120.697 51.1012 123.003C47.5079 126.168 45.9092 125.926 45.2395 121.771C45.1557 121.235 44.8523 120.771 44.7006 120.248C44.2644 118.844 43.7525 116.194 43.4504 116.232C41.5862 116.44 39.7323 117.164 37.9395 117.919C36.2768 118.612 34.649 119.438 33.0099 120.192C31.7954 120.751 30.0502 121.992 28.7771 121.19C28.497 121.01 28.2271 120.761 28.1249 120.42C28.0136 120.066 28.1059 119.671 28.2648 119.344C29.023 117.879 30.9727 116.738 32.1825 115.701C33.629 114.475 35.0755 113.25 36.5096 112.035C39.4026 109.584 42.2922 107.157 45.1582 104.667C47.6843 102.467 49.5838 102.753 50.4275 105.825C52.0619 111.808 52.5779 111.661 58.3685 109.21C59.6475 108.66 60.9445 108.136 62.2201 107.609C62.9569 107.307 64.5886 106.237 65.1215 107.363C65.1937 107.467 65.2104 107.574 65.2362 107.694Z" fill="#FF870A"/>
</svg>
