<svg width="120" height="149" viewBox="0 0 120 149" fill="none" xmlns="http://www.w3.org/2000/svg">
<path d="M74.031 67.1329C79.8316 67.8257 80.6171 69.3737 78.5502 73.3658C78.1212 74.2103 77.909 75.1784 77.4932 76.0315C76.2611 78.5634 77.0882 80.1013 79.5214 81.0606C81.4167 81.7982 83.312 82.5359 85.197 83.323C86.1134 83.6994 87.0379 84.2501 87.9749 84.5275C88.7711 84.7687 89.1625 84.838 89.4486 85.8141C89.6821 86.5681 89.7306 87.4257 89.3953 88.1065C88.995 88.9323 88.3325 89.0229 87.5654 88.9509C86.5609 88.8544 85.5044 88.9115 84.4661 88.9055C82.1964 88.9169 79.9215 88.906 77.6466 88.8951C73.1046 88.8598 68.5651 88.7885 64.0151 88.6728C61.4636 88.6117 60.3715 86.2806 61.4835 83.7074C62.2837 81.8679 63.2301 80.0868 64.0643 78.2508C64.8257 76.5735 64.9592 75.3661 62.7038 74.5985C60.2213 73.7569 57.7517 72.8299 55.3133 71.8484C54.0837 71.3601 52.8827 70.8532 51.6687 70.3376C51.1178 70.1073 50.559 69.7967 49.9977 69.6159C49.5566 69.4765 49.1628 69.537 48.8385 69.0988C48.577 68.7394 48.4874 68.2677 48.4788 67.8116C48.4647 67.2393 48.5628 66.628 48.8828 66.1624C49.4709 65.291 50.4731 65.5173 51.3653 65.5588C52.529 65.6284 53.6927 65.6979 54.8563 65.7675C57.0949 65.9047 59.3388 66.0641 61.5827 66.2235C65.7234 66.5209 69.9186 66.6289 74.031 67.1329Z" fill="white"/>
<path d="M37.8262 122.43C39.8651 120.875 41.4736 119.602 43.1241 118.412C45.8906 116.434 47.3201 117.204 47.7833 120.796C48.2596 124.397 48.7567 127.992 49.233 131.593C49.4816 133.391 49.7093 135.194 49.937 136.997C50.0879 138.148 50.907 140.772 50.1125 141.753C49.6931 142.267 48.9359 142.239 48.2988 142.159C46.3951 141.904 46.3962 139.575 45.5294 138.104C44.3406 136.065 43.4243 133.171 41.7155 132.387C40.43 131.805 38.0921 134.009 36.1773 134.875C34.0304 135.832 32.8274 134.666 32.3928 132.502C31.2548 126.757 30.1847 121.019 29.1224 115.267C28.8299 113.703 27.3918 109.489 29.4581 108.705C30.8356 108.181 31.3996 109.679 31.9288 110.703C32.5784 111.956 33.2281 113.21 33.8569 114.468C35.2009 117.117 36.5031 119.776 37.8262 122.43Z" fill="white"/>
<path d="M49.2358 34.6529C49.0745 34.3952 48.9947 34.0583 48.9546 33.7474C48.754 32.193 49.5558 30.7274 50.1494 29.3719C50.835 27.7921 51.5205 26.2123 52.2193 24.6411C53.6272 21.4488 55.088 18.2911 56.6491 15.1804C58.8042 10.9039 60.3782 10.5333 62.5475 14.1387C62.8253 14.6056 63.2795 14.9227 63.6153 15.3517C64.5431 16.4919 66.0058 18.7609 66.2719 18.6131C67.9241 17.7247 69.3749 16.3626 70.7572 14.9935C72.042 13.7312 73.2449 12.3582 74.4848 11.0474C75.4036 10.0759 76.5609 8.2746 78.041 8.54425C78.3682 8.60724 78.7113 8.73761 78.9334 9.01615C79.1686 9.30336 79.23 9.70408 79.2043 10.0666C79.0464 11.7082 77.6622 13.4934 76.9263 14.9073C76.0405 16.5833 75.1546 18.2593 74.2767 19.9215C72.505 23.2734 70.728 26.6029 68.996 29.9809C67.4716 32.964 65.6024 33.4064 63.675 30.8704C59.9286 25.9263 59.5045 26.255 55.0445 30.6879C54.0625 31.6747 53.054 32.6442 52.0667 33.6086C51.4953 34.1631 50.3799 35.7642 49.4658 34.9176C49.3601 34.8483 49.3046 34.7549 49.2358 34.6529Z" fill="white"/>
</svg>
